<?xml version="1.0" encoding="UTF-8"?>
<!DOCTYPE svg PUBLIC "-//W3C//DTD SVG 1.1//EN" "http://www.w3.org/Graphics/SVG/1.1/DTD/svg11.dtd">
<!-- Creator: CorelDRAW -->
<svg xmlns="http://www.w3.org/2000/svg" xml:space="preserve" width="42px" height="42px" version="1.1" style="shape-rendering:geometricPrecision; text-rendering:geometricPrecision; image-rendering:optimizeQuality; fill-rule:evenodd; clip-rule:evenodd"
viewBox="0 0 1.11 1.11"
 xmlns:xlink="http://www.w3.org/1999/xlink"
 xmlns:xodm="http://www.corel.com/coreldraw/odm/2003">
 <defs>
  <style type="text/css">
   <![CDATA[
    .fil0 {fill:white;fill-rule:nonzero}
   ]]>
  </style>
 </defs>
 <g id="Layer_x0020_1">
  <metadata id="CorelCorpID_0Corel-Layer"/>
  <path class="fil0" d="M0.66 0.55c0,0.06 -0.05,0.11 -0.11,0.11 -0.06,0 -0.1,-0.05 -0.1,-0.11 0,-0.06 0.04,-0.1 0.1,-0.1 0.06,0 0.11,0.04 0.11,0.1z"/>
  <path class="fil0" d="M0.72 0.42c-0.02,0 -0.04,-0.02 -0.04,-0.04 0,-0.02 0.02,-0.03 0.04,-0.03 0.02,0 0.04,0.01 0.04,0.03 0,0.02 -0.02,0.04 -0.04,0.04zm-0.17 0.3c-0.09,0 -0.16,-0.08 -0.16,-0.17 0,-0.09 0.07,-0.16 0.16,-0.16 0.09,0 0.17,0.07 0.17,0.16 0,0.09 -0.08,0.17 -0.17,0.17zm0.25 -0.35c0,-0.02 -0.01,-0.03 -0.02,-0.04 -0.01,-0.01 -0.03,-0.02 -0.04,-0.02 -0.01,-0.01 -0.03,-0.01 -0.06,-0.02 -0.03,0 -0.04,0 -0.13,0 -0.08,0 -0.09,0 -0.13,0 -0.03,0.01 -0.04,0.01 -0.05,0.02 -0.02,0 -0.03,0.01 -0.04,0.02 -0.01,0.01 -0.02,0.02 -0.02,0.04 -0.01,0.01 -0.01,0.02 -0.02,0.05 0,0.04 0,0.05 0,0.13 0,0.09 0,0.1 0,0.13 0.01,0.03 0.01,0.05 0.02,0.06 0,0.01 0.01,0.03 0.02,0.04 0.01,0.01 0.02,0.02 0.04,0.02 0.01,0 0.02,0.01 0.05,0.01 0.04,0 0.05,0 0.13,0 0.09,0 0.1,0 0.13,0 0.03,0 0.05,-0.01 0.06,-0.01 0.03,-0.01 0.05,-0.03 0.06,-0.06 0,-0.01 0.01,-0.03 0.01,-0.06 0,-0.03 0,-0.04 0,-0.13 0,-0.08 0,-0.09 0,-0.13 0,-0.03 -0.01,-0.04 -0.01,-0.05z"/>
  <path class="fil0" d="M0.66 0.55c0,0.06 -0.05,0.11 -0.11,0.11 -0.06,0 -0.1,-0.05 -0.1,-0.11 0,-0.06 0.04,-0.1 0.1,-0.1 0.06,0 0.11,0.04 0.11,0.1z"/>
  <path class="fil0" d="M0.72 0.42c-0.02,0 -0.04,-0.02 -0.04,-0.04 0,-0.02 0.02,-0.03 0.04,-0.03 0.02,0 0.04,0.01 0.04,0.03 0,0.02 -0.02,0.04 -0.04,0.04zm-0.17 0.3c-0.09,0 -0.16,-0.08 -0.16,-0.17 0,-0.09 0.07,-0.16 0.16,-0.16 0.09,0 0.17,0.07 0.17,0.16 0,0.09 -0.08,0.17 -0.17,0.17zm0.25 -0.35c0,-0.02 -0.01,-0.03 -0.02,-0.04 -0.01,-0.01 -0.03,-0.02 -0.04,-0.02 -0.01,-0.01 -0.03,-0.01 -0.06,-0.02 -0.03,0 -0.04,0 -0.13,0 -0.08,0 -0.09,0 -0.13,0 -0.03,0.01 -0.04,0.01 -0.05,0.02 -0.02,0 -0.03,0.01 -0.04,0.02 -0.01,0.01 -0.02,0.02 -0.02,0.04 -0.01,0.01 -0.01,0.02 -0.02,0.05 0,0.04 0,0.05 0,0.13 0,0.09 0,0.1 0,0.13 0.01,0.03 0.01,0.05 0.02,0.06 0,0.01 0.01,0.03 0.02,0.04 0.01,0.01 0.02,0.02 0.04,0.02 0.01,0 0.02,0.01 0.05,0.01 0.04,0 0.05,0 0.13,0 0.09,0 0.1,0 0.13,0 0.03,0 0.05,-0.01 0.06,-0.01 0.03,-0.01 0.05,-0.03 0.06,-0.06 0,-0.01 0.01,-0.03 0.01,-0.06 0,-0.03 0,-0.04 0,-0.13 0,-0.08 0,-0.09 0,-0.13 0,-0.03 -0.01,-0.04 -0.01,-0.05z"/>
  <path class="fil0" d="M0.87 0.68c0,0.04 -0.01,0.06 -0.02,0.08 -0.01,0.04 -0.05,0.08 -0.09,0.09 -0.02,0.01 -0.04,0.02 -0.08,0.02 -0.03,0 -0.04,0 -0.13,0 -0.08,0 -0.09,0 -0.13,0 -0.03,0 -0.05,-0.01 -0.08,-0.02 -0.02,0 -0.04,-0.02 -0.05,-0.03 -0.02,-0.02 -0.03,-0.04 -0.04,-0.06 -0.01,-0.02 -0.01,-0.04 -0.01,-0.08 0,-0.03 0,-0.04 0,-0.13 0,-0.08 0,-0.09 0,-0.13 0,-0.03 0,-0.05 0.01,-0.08 0.01,-0.02 0.02,-0.04 0.04,-0.05 0.01,-0.02 0.03,-0.03 0.05,-0.04 0.03,-0.01 0.05,-0.01 0.08,-0.01 0.04,0 0.05,0 0.13,0 0.09,0 0.1,0 0.13,0 0.04,0 0.06,0 0.08,0.01 0.02,0.01 0.04,0.02 0.06,0.04 0.01,0.01 0.03,0.03 0.03,0.05 0.01,0.03 0.02,0.05 0.02,0.08 0,0.04 0,0.05 0,0.13 0,0.09 0,0.1 0,0.13zm-0.32 -0.68c-0.3,0 -0.55,0.25 -0.55,0.55 0,0.31 0.25,0.56 0.55,0.56 0.31,0 0.56,-0.25 0.56,-0.56 0,-0.3 -0.25,-0.55 -0.56,-0.55z"/>
 </g>
</svg>
