<?xml version="1.0" encoding="UTF-8"?>
<!DOCTYPE svg PUBLIC "-//W3C//DTD SVG 1.1//EN" "http://www.w3.org/Graphics/SVG/1.1/DTD/svg11.dtd">
<!-- Creator: CorelDRAW -->
<svg xmlns="http://www.w3.org/2000/svg" xml:space="preserve" width="51px" height="51px" version="1.1" style="shape-rendering:geometricPrecision; text-rendering:geometricPrecision; image-rendering:optimizeQuality; fill-rule:evenodd; clip-rule:evenodd"
viewBox="0 0 1.22 1.22"
 xmlns:xlink="http://www.w3.org/1999/xlink"
 xmlns:xodm="http://www.corel.com/coreldraw/odm/2003">
 <defs>
  <style type="text/css">
   <![CDATA[
    .fil0 {fill:#194B9B;fill-rule:nonzero}
    .fil1 {fill:white;fill-rule:nonzero}
   ]]>
  </style>
 </defs>
 <g id="Layer_x0020_1">
  <metadata id="CorelCorpID_0Corel-Layer"/>
  <path class="fil0" d="M1.22 0.61c0,0.34 -0.27,0.61 -0.61,0.61 -0.34,0 -0.61,-0.27 -0.61,-0.61 0,-0.34 0.27,-0.61 0.61,-0.61 0.34,0 0.61,0.27 0.61,0.61z"/>
  <path class="fil1" d="M0.29 0.49c-0.02,0 -0.04,0.02 -0.04,0.04l0 0.2c0,0.02 0.02,0.04 0.04,0.04 0.03,0 0.04,-0.02 0.04,-0.04l0 -0.2c0,-0.02 -0.01,-0.04 -0.04,-0.04z"/>
  <path class="fil1" d="M0.93 0.49c-0.02,0 -0.04,0.02 -0.04,0.04l0 0.2c0,0.02 0.02,0.04 0.04,0.04 0.02,0 0.04,-0.02 0.04,-0.04l0 -0.2c0,-0.02 -0.02,-0.04 -0.04,-0.04z"/>
  <path class="fil1" d="M0.37 0.49l0 0 0 0.37c0,0.03 0.03,0.06 0.06,0.06l0.07 0 0 0.1c0,0.02 0.01,0.04 0.04,0.04 0.02,0 0.04,-0.02 0.04,-0.04l0 -0.1 0.07 0 0 0.1c0,0.02 0.01,0.04 0.04,0.04 0.02,0 0.04,-0.02 0.04,-0.04l0 -0.1 0.06 0c0.04,0 0.06,-0.03 0.06,-0.06l0 -0.37c0,0 0,0 0,0l-0.48 0z"/>
  <path class="fil1" d="M0.73 0.36c-0.01,0 -0.02,-0.01 -0.02,-0.02 0,-0.01 0.01,-0.02 0.02,-0.02 0.01,0 0.02,0.01 0.02,0.02 0,0.01 -0.01,0.02 -0.02,0.02zm-0.24 0c-0.02,0 -0.03,-0.01 -0.03,-0.02 0,-0.01 0.01,-0.02 0.03,-0.02 0.01,0 0.02,0.01 0.02,0.02 0,0.01 -0.01,0.02 -0.02,0.02zm0.24 -0.11l0.04 -0.08 -0.01 -0.01 -0.04 0.08c-0.03,-0.02 -0.07,-0.02 -0.11,-0.02 -0.04,0 -0.07,0 -0.1,0.02l-0.05 -0.08 0 0.01 0.04 0.07c-0.08,0.04 -0.13,0.12 -0.13,0.21l0.48 0c0,-0.09 -0.05,-0.16 -0.12,-0.2z"/>
 </g>
</svg>
