<?xml version="1.0" encoding="UTF-8"?>
<!DOCTYPE svg PUBLIC "-//W3C//DTD SVG 1.1//EN" "http://www.w3.org/Graphics/SVG/1.1/DTD/svg11.dtd">
<!-- Creator: CorelDRAW -->
<svg xmlns="http://www.w3.org/2000/svg" xml:space="preserve" width="42px" height="42px" version="1.1" style="shape-rendering:geometricPrecision; text-rendering:geometricPrecision; image-rendering:optimizeQuality; fill-rule:evenodd; clip-rule:evenodd"
viewBox="0 0 1.3 1.3"
 xmlns:xlink="http://www.w3.org/1999/xlink"
 xmlns:xodm="http://www.corel.com/coreldraw/odm/2003">
 <defs>
  <style type="text/css">
   <![CDATA[
    .fil0 {fill:white;fill-rule:nonzero}
   ]]>
  </style>
 </defs>
 <g id="Layer_x0020_1">
  <metadata id="CorelCorpID_0Corel-Layer"/>
  <polygon class="fil0" points="0.38,0.34 0.85,0.96 0.92,0.96 0.46,0.34 "/>
  <polygon class="fil0" points="0.38,0.34 0.85,0.96 0.92,0.96 0.46,0.34 "/>
  <path class="fil0" d="M0.81 1.03l-0.2 -0.26 -0.23 0.26 -0.13 0 0.3 -0.34 -0.32 -0.42 0.27 0 0.18 0.24 0.22 -0.24 0.13 0 -0.29 0.32 0.33 0.44 -0.26 0zm-0.16 -1.03c-0.36,0 -0.65,0.29 -0.65,0.65 0,0.36 0.29,0.65 0.65,0.65 0.36,0 0.65,-0.29 0.65,-0.65 0,-0.36 -0.29,-0.65 -0.65,-0.65z"/>
 </g>
</svg>
