<?xml version="1.0" encoding="UTF-8"?>
<!DOCTYPE svg PUBLIC "-//W3C//DTD SVG 1.1//EN" "http://www.w3.org/Graphics/SVG/1.1/DTD/svg11.dtd">
<!-- Creator: CorelDRAW -->
<svg xmlns="http://www.w3.org/2000/svg" xml:space="preserve" width="50px" height="49px" version="1.1" style="shape-rendering:geometricPrecision; text-rendering:geometricPrecision; image-rendering:optimizeQuality; fill-rule:evenodd; clip-rule:evenodd"
viewBox="0 0 20.44 20.16"
 xmlns:xlink="http://www.w3.org/1999/xlink"
 xmlns:xodm="http://www.corel.com/coreldraw/odm/2003">
 <defs>
  <style type="text/css">
   <![CDATA[
    .fil0 {fill:#194B9B;fill-rule:nonzero}
    .fil1 {fill:white;fill-rule:nonzero}
   ]]>
  </style>
 </defs>
 <g id="Layer_x0020_1">
  <metadata id="CorelCorpID_0Corel-Layer"/>
  <path class="fil0" d="M20.44 10.08c0,-1.07 -1.28,-1.92 -1.59,-2.89 -0.31,-1 0.23,-2.47 -0.36,-3.3 -0.6,-0.84 -2.12,-0.76 -2.94,-1.38 -0.81,-0.6 -1.2,-2.12 -2.17,-2.45 -0.94,-0.31 -2.12,0.67 -3.16,0.67 -1.04,0 -2.22,-0.98 -3.16,-0.67 -0.97,0.33 -1.36,1.85 -2.17,2.45 -0.82,0.62 -2.34,0.54 -2.94,1.38 -0.59,0.83 -0.05,2.3 -0.36,3.3 -0.31,0.97 -1.59,1.82 -1.59,2.89 0,1.07 1.28,1.93 1.59,2.9 0.31,1 -0.23,2.46 0.36,3.29 0.6,0.85 2.12,0.77 2.94,1.38 0.81,0.61 1.2,2.13 2.17,2.45 0.94,0.32 2.12,-0.66 3.16,-0.66 1.04,0 2.22,0.98 3.16,0.66 0.97,-0.32 1.36,-1.84 2.17,-2.45 0.82,-0.61 2.34,-0.53 2.94,-1.38 0.59,-0.83 0.05,-2.29 0.36,-3.29 0.31,-0.97 1.59,-1.83 1.59,-2.9z"/>
  <path class="fil1" d="M10.24 15.44l0 0c-0.91,0 -1.8,-0.22 -2.58,-0.65l-2.87 0.75 0.77 -2.8c-0.48,-0.82 -0.72,-1.75 -0.72,-2.7 0,-2.99 2.42,-5.41 5.4,-5.41 1.45,0 2.8,0.56 3.82,1.58 1.03,1.03 1.59,2.38 1.59,3.83 0,2.98 -2.43,5.4 -5.41,5.4z"/>
  <path class="fil0" d="M12.89 11.97c-0.12,0.31 -0.66,0.6 -0.92,0.64 -0.23,0.03 -0.52,0.05 -0.85,-0.06 -0.19,-0.06 -0.44,-0.14 -0.77,-0.28 -1.35,-0.59 -2.24,-1.95 -2.3,-2.04 -0.07,-0.09 -0.55,-0.73 -0.55,-1.4 0,-0.66 0.34,-0.99 0.47,-1.12 0.12,-0.14 0.27,-0.17 0.36,-0.17 0.09,0 0.18,0 0.26,0 0.08,0.01 0.19,-0.03 0.3,0.23 0.11,0.27 0.38,0.94 0.42,1.01 0.03,0.07 0.05,0.14 0.01,0.23 -0.05,0.09 -0.19,0.28 -0.34,0.46 -0.06,0.08 -0.14,0.15 -0.06,0.28 0.08,0.14 0.35,0.58 0.75,0.94 0.52,0.46 0.95,0.6 1.09,0.67 0.13,0.07 0.21,0.05 0.29,-0.04 0.08,-0.09 0.34,-0.39 0.43,-0.53 0.09,-0.13 0.18,-0.11 0.3,-0.06 0.13,0.04 0.79,0.37 0.93,0.44 0.13,0.06 0.22,0.1 0.25,0.15 0.04,0.06 0.04,0.33 -0.07,0.65zm-2.65 -6.43c-2.48,0 -4.49,2.02 -4.49,4.5 0,0.84 0.23,1.67 0.69,2.39l0.1 0.17 -0.45 1.65 1.7 -0.44 0.16 0.09c0.69,0.41 1.48,0.63 2.29,0.63l0 0c2.48,0 4.49,-2.01 4.5,-4.49 0,-1.2 -0.47,-2.33 -1.32,-3.18 -0.85,-0.85 -1.98,-1.32 -3.18,-1.32z"/>
 </g>
</svg>
