<?xml version="1.0" encoding="UTF-8"?>
<!DOCTYPE svg PUBLIC "-//W3C//DTD SVG 1.1//EN" "http://www.w3.org/Graphics/SVG/1.1/DTD/svg11.dtd">
<!-- Creator: CorelDRAW -->
<svg xmlns="http://www.w3.org/2000/svg" xml:space="preserve" width="42px" height="42px" version="1.1" style="shape-rendering:geometricPrecision; text-rendering:geometricPrecision; image-rendering:optimizeQuality; fill-rule:evenodd; clip-rule:evenodd"
viewBox="0 0 1.44 1.43"
 xmlns:xlink="http://www.w3.org/1999/xlink"
 xmlns:xodm="http://www.corel.com/coreldraw/odm/2003">
 <defs>
  <style type="text/css">
   <![CDATA[
    .fil0 {fill:white;fill-rule:nonzero}
   ]]>
  </style>
 </defs>
 <g id="Layer_x0020_1">
  <metadata id="CorelCorpID_0Corel-Layer"/>
  <path class="fil0" d="M0.72 0c-0.4,0 -0.72,0.32 -0.72,0.72 0,0.35 0.26,0.65 0.6,0.71l0 -0.56 -0.17 0 0 -0.2 0.17 0 0 -0.15c0,-0.17 0.1,-0.27 0.26,-0.27 0.07,0 0.13,0.01 0.15,0.01l0 0.18 -0.1 0c-0.09,0 -0.1,0.04 -0.1,0.1l0 0.13 0.2 0 -0.03 0.2 -0.17 0 0 0.56c0.35,-0.04 0.63,-0.34 0.63,-0.71 0,-0.4 -0.32,-0.72 -0.72,-0.72z"/>
 </g>
</svg>
