<?xml version="1.0" encoding="UTF-8"?>
<!DOCTYPE svg PUBLIC "-//W3C//DTD SVG 1.1//EN" "http://www.w3.org/Graphics/SVG/1.1/DTD/svg11.dtd">
<!-- Creator: CorelDRAW -->
<svg xmlns="http://www.w3.org/2000/svg" xml:space="preserve" width="50px" height="49px" version="1.1" style="shape-rendering:geometricPrecision; text-rendering:geometricPrecision; image-rendering:optimizeQuality; fill-rule:evenodd; clip-rule:evenodd"
viewBox="0 0 3.1 3.06"
 xmlns:xlink="http://www.w3.org/1999/xlink"
 xmlns:xodm="http://www.corel.com/coreldraw/odm/2003">
 <defs>
  <style type="text/css">
   <![CDATA[
    .fil0 {fill:#194B9B;fill-rule:nonzero}
    .fil1 {fill:white;fill-rule:nonzero}
   ]]>
  </style>
 </defs>
 <g id="Layer_x0020_1">
  <metadata id="CorelCorpID_0Corel-Layer"/>
  <path class="fil0" d="M3.1 1.53c0,-0.16 -0.19,-0.29 -0.24,-0.44 -0.05,-0.15 0.03,-0.37 -0.06,-0.5 -0.09,-0.13 -0.32,-0.12 -0.44,-0.21 -0.12,-0.09 -0.18,-0.32 -0.33,-0.37 -0.14,-0.05 -0.32,0.1 -0.48,0.1 -0.16,0 -0.34,-0.15 -0.48,-0.1 -0.15,0.05 -0.21,0.28 -0.33,0.37 -0.12,0.09 -0.35,0.08 -0.44,0.21 -0.09,0.13 -0.01,0.35 -0.06,0.5 -0.05,0.15 -0.24,0.28 -0.24,0.44 0,0.16 0.19,0.29 0.24,0.44 0.05,0.15 -0.03,0.37 0.06,0.5 0.09,0.13 0.32,0.11 0.44,0.21 0.12,0.09 0.18,0.32 0.33,0.37 0.14,0.05 0.32,-0.1 0.48,-0.1 0.16,0 0.34,0.15 0.48,0.1 0.15,-0.05 0.21,-0.28 0.33,-0.37 0.12,-0.1 0.35,-0.08 0.44,-0.21 0.09,-0.13 0.01,-0.35 0.06,-0.5 0.05,-0.15 0.24,-0.28 0.24,-0.44z"/>
  <path class="fil1" d="M2.21 2.08c0,0.06 -0.05,0.11 -0.11,0.11 -0.66,0 -1.21,-0.55 -1.21,-1.21 0,-0.06 0.05,-0.11 0.11,-0.11l0.24 0c0.06,0 0.11,0.05 0.11,0.11 0,0.08 0.01,0.16 0.03,0.23 0.01,0.04 0,0.08 -0.02,0.11l-0.11 0.14c0.09,0.17 0.19,0.28 0.37,0.37l0.14 -0.11c0.03,-0.02 0.07,-0.03 0.11,-0.02 0.07,0.02 0.15,0.04 0.23,0.04 0.06,0 0.11,0.04 0.11,0.1l0 0.24z"/>
 </g>
</svg>
