<?xml version="1.0" encoding="UTF-8"?>
<!DOCTYPE svg PUBLIC "-//W3C//DTD SVG 1.1//EN" "http://www.w3.org/Graphics/SVG/1.1/DTD/svg11.dtd">
<!-- Creator: CorelDRAW -->
<svg xmlns="http://www.w3.org/2000/svg" xml:space="preserve" width="42px" height="42px" version="1.1" style="shape-rendering:geometricPrecision; text-rendering:geometricPrecision; image-rendering:optimizeQuality; fill-rule:evenodd; clip-rule:evenodd"
viewBox="0 0 1.2 1.2"
 xmlns:xlink="http://www.w3.org/1999/xlink"
 xmlns:xodm="http://www.corel.com/coreldraw/odm/2003">
 <defs>
  <style type="text/css">
   <![CDATA[
    .fil0 {fill:white;fill-rule:nonzero}
   ]]>
  </style>
 </defs>
 <g id="Layer_x0020_1">
  <metadata id="CorelCorpID_0Corel-Layer"/>
  <path class="fil0" d="M0.95 0.9l-0.15 0 0 -0.23c0,-0.06 -0.02,-0.1 -0.07,-0.1 -0.04,0 -0.06,0.03 -0.07,0.05 -0.01,0.01 -0.01,0.03 -0.01,0.04l0 0.24 -0.14 0c0,0 0,-0.39 0,-0.43l0.14 0 0 0.06c0.02,-0.03 0.05,-0.07 0.13,-0.07 0.1,0 0.17,0.06 0.17,0.19l0 0.25zm-0.6 -0.49l0 0c-0.05,0 -0.08,-0.04 -0.08,-0.08 0,-0.04 0.03,-0.08 0.08,-0.08 0.05,0 0.08,0.04 0.08,0.08 0,0.04 -0.03,0.08 -0.08,0.08zm0.07 0.49l-0.14 0 0 -0.43 0.14 0 0 0.43zm0.18 -0.9c-0.33,0 -0.6,0.27 -0.6,0.6 0,0.33 0.27,0.6 0.6,0.6 0.33,0 0.6,-0.27 0.6,-0.6 0,-0.33 -0.27,-0.6 -0.6,-0.6z"/>
 </g>
</svg>
