<?xml version="1.0" encoding="UTF-8"?>
<!DOCTYPE svg PUBLIC "-//W3C//DTD SVG 1.1//EN" "http://www.w3.org/Graphics/SVG/1.1/DTD/svg11.dtd">
<!-- Creator: CorelDRAW -->
<svg xmlns="http://www.w3.org/2000/svg" xml:space="preserve" width="51px" height="51px" version="1.1" style="shape-rendering:geometricPrecision; text-rendering:geometricPrecision; image-rendering:optimizeQuality; fill-rule:evenodd; clip-rule:evenodd"
viewBox="0 0 1.29 1.29"
 xmlns:xlink="http://www.w3.org/1999/xlink"
 xmlns:xodm="http://www.corel.com/coreldraw/odm/2003">
 <defs>
  <style type="text/css">
   <![CDATA[
    .fil1 {fill:white}
    .fil0 {fill:#194B9B;fill-rule:nonzero}
   ]]>
  </style>
 </defs>
 <g id="Layer_x0020_1">
  <metadata id="CorelCorpID_0Corel-Layer"/>
  <path class="fil0" d="M1.29 0.65c0,0.35 -0.29,0.64 -0.64,0.64 -0.36,0 -0.65,-0.29 -0.65,-0.64 0,-0.36 0.29,-0.65 0.65,-0.65 0.35,0 0.64,0.29 0.64,0.65z"/>
  <path class="fil1" d="M0.48 0.38c0.03,0 0.05,0.01 0.08,0.02 0.02,0 0.03,0.01 0.05,0.01 0.03,0.01 0.05,0.01 0.08,-0.01 0.02,0 0.04,-0.01 0.06,-0.02 0.07,-0.01 0.12,0 0.17,0.04 0.02,0.01 0.03,0.03 0.04,0.04 0,0 0,0 0,0.01 -0.05,0.03 -0.08,0.08 -0.09,0.14 -0.01,0.05 0.01,0.1 0.05,0.15 0.02,0.01 0.04,0.03 0.06,0.04 0.01,0 0.01,0 0.01,0.01 -0.03,0.06 -0.06,0.11 -0.11,0.16 -0.01,0.02 -0.03,0.03 -0.05,0.04 -0.03,0.02 -0.06,0.02 -0.09,0.01 -0.01,-0.01 -0.03,-0.02 -0.04,-0.02 -0.04,-0.01 -0.09,-0.01 -0.13,0 -0.01,0.01 -0.02,0.01 -0.03,0.02 -0.04,0.01 -0.08,0 -0.12,-0.02 -0.02,-0.02 -0.03,-0.04 -0.05,-0.06 -0.03,-0.05 -0.06,-0.1 -0.08,-0.16 -0.02,-0.04 -0.02,-0.08 -0.03,-0.12 0,-0.05 0,-0.1 0.02,-0.14 0.03,-0.07 0.08,-0.11 0.16,-0.14 0.01,0 0.02,0 0.04,0z"/>
  <path class="fil1" d="M0.79 0.2c0,0.04 -0.02,0.07 -0.04,0.11 -0.02,0.03 -0.05,0.05 -0.09,0.07 -0.01,0 -0.03,0 -0.04,0 0,0 -0.01,0 -0.01,0 0,-0.03 0.01,-0.06 0.02,-0.09 0.02,-0.05 0.06,-0.08 0.12,-0.1 0.01,-0.01 0.02,-0.01 0.03,-0.01 0.01,0 0.01,0 0.01,0.01 0,0 0,0.01 0,0.01z"/>
 </g>
</svg>
