<?xml version="1.0" encoding="UTF-8"?>
<!DOCTYPE svg PUBLIC "-//W3C//DTD SVG 1.1//EN" "http://www.w3.org/Graphics/SVG/1.1/DTD/svg11.dtd">
<!-- Creator: CorelDRAW -->
<svg xmlns="http://www.w3.org/2000/svg" xml:space="preserve" width="50px" height="49px" version="1.1" style="shape-rendering:geometricPrecision; text-rendering:geometricPrecision; image-rendering:optimizeQuality; fill-rule:evenodd; clip-rule:evenodd"
viewBox="0 0 1.38 1.36"
 xmlns:xlink="http://www.w3.org/1999/xlink"
 xmlns:xodm="http://www.corel.com/coreldraw/odm/2003">
 <defs>
  <style type="text/css">
   <![CDATA[
    .fil0 {fill:#194B9B;fill-rule:nonzero}
    .fil1 {fill:white;fill-rule:nonzero}
   ]]>
  </style>
 </defs>
 <g id="Layer_x0020_1">
  <metadata id="CorelCorpID_0Corel-Layer"/>
  <path class="fil0" d="M1.38 0.68c0,-0.07 -0.08,-0.13 -0.1,-0.19 -0.03,-0.07 0.01,-0.17 -0.03,-0.23 -0.04,-0.05 -0.14,-0.05 -0.2,-0.09 -0.05,-0.04 -0.08,-0.14 -0.14,-0.17 -0.07,-0.02 -0.15,0.05 -0.22,0.05 -0.07,0 -0.15,-0.07 -0.21,-0.05 -0.07,0.03 -0.09,0.13 -0.15,0.17 -0.05,0.04 -0.16,0.04 -0.2,0.09 -0.04,0.06 0,0.16 -0.02,0.23 -0.02,0.06 -0.11,0.12 -0.11,0.19 0,0.07 0.09,0.13 0.11,0.2 0.02,0.07 -0.02,0.16 0.02,0.22 0.04,0.06 0.15,0.05 0.2,0.09 0.06,0.05 0.08,0.15 0.15,0.17 0.06,0.02 0.14,-0.04 0.21,-0.04 0.07,0 0.15,0.06 0.22,0.04 0.06,-0.02 0.09,-0.12 0.14,-0.17 0.06,-0.04 0.16,-0.03 0.2,-0.09 0.04,-0.06 0,-0.15 0.03,-0.22 0.02,-0.07 0.1,-0.13 0.1,-0.2z"/>
  <path class="fil1" d="M0.93 0.89l-0.13 0.09c-0.01,0.01 -0.02,0.01 -0.03,0l-0.13 -0.17 -0.08 0.06c-0.01,0 -0.01,0.01 -0.02,0 -0.01,0 -0.02,-0.01 -0.02,-0.02l-0.07 -0.45c-0.01,0 0,-0.01 0.01,-0.02 0,-0.01 0.01,-0.01 0.02,0l0.41 0.21c0.01,0 0.01,0.01 0.01,0.02 0,0.01 0,0.01 -0.01,0.02l-0.08 0.06 0.12 0.17c0.01,0.01 0.01,0.03 0,0.03z"/>
 </g>
</svg>
