<?xml version="1.0" encoding="UTF-8"?>
<!DOCTYPE svg PUBLIC "-//W3C//DTD SVG 1.1//EN" "http://www.w3.org/Graphics/SVG/1.1/DTD/svg11.dtd">
<!-- Creator: CorelDRAW -->
<svg xmlns="http://www.w3.org/2000/svg" xml:space="preserve" width="688px" height="227px" version="1.1" style="shape-rendering:geometricPrecision; text-rendering:geometricPrecision; image-rendering:optimizeQuality; fill-rule:evenodd; clip-rule:evenodd"
viewBox="0 0 1184.26 391.45"
 xmlns:xlink="http://www.w3.org/1999/xlink"
 xmlns:xodm="http://www.corel.com/coreldraw/odm/2003">
 <defs>
  <style type="text/css">
   <![CDATA[
    .fil2 {fill:#194B9B;fill-rule:nonzero}
    .fil0 {fill:#6E6E6E;fill-rule:nonzero}
    .fil1 {fill:#99292B;fill-rule:nonzero}
   ]]>
  </style>
 </defs>
 <g id="Layer_x0020_1">
  <metadata id="CorelCorpID_0Corel-Layer"/>
  <polygon class="fil0" points="20.73,368.77 6.38,368.77 6.38,375.14 17.76,375.14 17.76,380.18 6.38,380.18 6.38,391.03 0,391.03 0,363.73 20.73,363.73 "/>
  <path class="fil0" d="M45.57 368.44c-1.43,0 -2.64,0.34 -3.62,1.01 -0.99,0.68 -1.75,1.68 -2.27,3 -0.52,1.33 -0.78,2.97 -0.78,4.93 0,1.93 0.26,3.56 0.78,4.9 0.52,1.33 1.28,2.34 2.27,3.02 0.98,0.67 2.19,1.01 3.62,1.01 1.4,0 2.6,-0.34 3.59,-1.01 0.98,-0.68 1.73,-1.69 2.24,-3.02 0.51,-1.34 0.76,-2.97 0.76,-4.9 0,-1.96 -0.25,-3.6 -0.76,-4.93 -0.51,-1.32 -1.26,-2.32 -2.24,-3 -0.99,-0.67 -2.19,-1.01 -3.59,-1.01zm0 -5.13c2.72,0 5.06,0.57 7.02,1.69 1.97,1.14 3.48,2.75 4.56,4.84 1.07,2.1 1.61,4.61 1.61,7.54 0,2.92 -0.54,5.43 -1.61,7.52 -1.08,2.1 -2.59,3.71 -4.56,4.85 -1.96,1.13 -4.3,1.69 -7.02,1.69 -2.72,0 -5.06,-0.56 -7.04,-1.69 -1.98,-1.14 -3.5,-2.75 -4.58,-4.85 -1.07,-2.09 -1.61,-4.6 -1.61,-7.52 0,-2.93 0.54,-5.44 1.61,-7.54 1.08,-2.09 2.6,-3.7 4.58,-4.84 1.98,-1.12 4.32,-1.69 7.04,-1.69z"/>
  <path class="fil0" d="M78.98 368.69l5.36 0c1.51,0 2.63,0.29 3.36,0.89 0.73,0.59 1.09,1.53 1.09,2.83 0,1.27 -0.36,2.21 -1.09,2.81 -0.73,0.61 -1.85,0.91 -3.36,0.91l-5.36 0 0 -7.44zm17.88 22.34l-7.21 -11.17c1.13,-0.36 2.12,-0.88 2.95,-1.55 1.77,-1.45 2.66,-3.54 2.66,-6.27 0,-2.53 -0.89,-4.56 -2.68,-6.07 -1.79,-1.49 -4.25,-2.25 -7.41,-2.25l-12.45 0 0 27.31 6.26 0 0 -10.22 4.7 0 6.06 10.22 7.12 0z"/>
  <polygon class="fil0" points="140.09,363.72 140.09,391.03 134.4,391.03 134.4,377.62 134.65,369.48 134.56,369.48 127.44,391.03 122.24,391.03 115.16,369.48 115.03,369.48 115.28,377.62 115.28,391.03 109.59,391.03 109.59,363.72 118.74,363.72 123.32,378.12 124.96,384.12 125.05,384.12 126.7,378.16 131.27,363.72 "/>
  <polygon class="fil0" points="155.33,391.03 155.33,363.72 176.1,363.72 176.1,368.77 161.72,368.77 161.72,374.94 173.09,374.94 173.09,379.73 161.72,379.73 161.72,385.98 176.68,385.98 176.68,391.03 "/>
  <path class="fil0" d="M196.29 368.69l5.36 0c1.5,0 2.62,0.29 3.35,0.89 0.73,0.59 1.09,1.53 1.09,2.83 0,1.27 -0.36,2.21 -1.09,2.81 -0.73,0.61 -1.85,0.91 -3.35,0.91l-5.36 0 0 -7.44zm17.88 22.34l-7.22 -11.17c1.13,-0.36 2.12,-0.88 2.95,-1.55 1.78,-1.45 2.66,-3.54 2.66,-6.27 0,-2.53 -0.89,-4.56 -2.68,-6.07 -1.79,-1.49 -4.25,-2.25 -7.42,-2.25l-12.44 0 0 27.31 6.27 0 0 -10.22 4.69 0 6.06 10.22 7.13 0z"/>
  <polygon class="fil0" points="233.28,385.98 247.25,385.98 247.25,391.02 226.9,391.02 226.9,363.73 233.28,363.73 "/>
  <polygon class="fil0" points="277.87,363.72 268.22,380.93 268.22,391.03 261.84,391.03 261.84,380.93 252.24,363.72 258.91,363.72 262.99,371.54 265.05,375.97 267.11,371.54 271.23,363.72 "/>
  <path class="fil0" d="M316.43 368.69l5.35 0c1.52,0 2.64,0.29 3.37,0.89 0.72,0.59 1.09,1.53 1.09,2.83 0,1.27 -0.37,2.21 -1.09,2.81 -0.73,0.61 -1.85,0.91 -3.37,0.91l-5.35 0 0 -7.44zm17.88 22.34l-7.22 -11.17c1.14,-0.36 2.13,-0.88 2.96,-1.55 1.77,-1.45 2.65,-3.54 2.65,-6.27 0,-2.53 -0.89,-4.56 -2.67,-6.07 -1.79,-1.49 -4.26,-2.25 -7.42,-2.25l-12.44 0 0 27.31 6.26 0 0 -10.22 4.7 0 6.06 10.22 7.12 0z"/>
  <polygon class="fil0" points="347.04,391.03 347.04,363.72 367.81,363.72 367.81,368.77 353.43,368.77 353.43,374.94 364.8,374.94 364.8,379.73 353.43,379.73 353.43,385.98 368.39,385.98 368.39,391.03 "/>
  <polygon class="fil0" points="388.12,385.98 402.09,385.98 402.09,391.02 381.74,391.02 381.74,363.73 388.12,363.73 "/>
  <polygon class="fil0" points="421.54,391.03 415.15,391.03 415.15,363.72 421.54,363.72 "/>
  <path class="fil0" d="M443.66 380.11l7.26 0 -3.63 -11.51 -3.63 11.51zm17.23 10.92l-6.59 0 -2.11 -6.41 -9.85 0 -2.1 6.41 -6.46 0 9.72 -27.31 7.66 0 9.73 27.31z"/>
  <polygon class="fil0" points="497.06,363.72 497.06,391.03 489.89,391.03 480.91,375.64 478.73,371.38 478.64,371.38 478.81,376.22 478.81,391.03 473.16,391.03 473.16,363.72 480.33,363.72 489.28,379.11 491.5,383.42 491.58,383.42 491.41,378.53 491.41,363.72 "/>
  <path class="fil0" d="M536 383.37c-0.56,1.83 -1.39,3.33 -2.51,4.53 -1.13,1.21 -2.49,2.1 -4.07,2.67 -1.57,0.58 -3.3,0.88 -5.17,0.88 -2.72,0 -5.06,-0.57 -7.04,-1.7 -1.98,-1.13 -3.5,-2.75 -4.57,-4.85 -1.07,-2.09 -1.61,-4.6 -1.61,-7.52 0,-2.93 0.54,-5.43 1.61,-7.54 1.07,-2.09 2.59,-3.71 4.57,-4.83 1.98,-1.14 4.31,-1.7 7.01,-1.7 1.86,0 3.57,0.26 5.13,0.79 1.55,0.52 2.87,1.32 3.95,2.39 1.08,1.08 1.86,2.46 2.32,4.14l-5.68 2.36c-0.42,-1.68 -1.07,-2.86 -2,-3.54 -0.92,-0.68 -2.08,-1.01 -3.48,-1.01 -1.4,0 -2.62,0.33 -3.64,1.01 -1.04,0.68 -1.83,1.68 -2.39,3 -0.57,1.32 -0.85,2.97 -0.85,4.93 0,1.93 0.26,3.56 0.78,4.9 0.53,1.34 1.3,2.34 2.33,3.02 1.03,0.67 2.29,1.01 3.77,1.01 1.4,0 2.6,-0.37 3.61,-1.13 1,-0.77 1.69,-1.93 2.08,-3.5l5.85 1.69z"/>
  <polygon class="fil0" points="549.06,391.03 549.06,363.72 569.82,363.72 569.82,368.77 555.44,368.77 555.44,374.94 566.82,374.94 566.82,379.73 555.44,379.73 555.44,385.98 570.4,385.98 570.4,391.03 "/>
  <path class="fil0" d="M616.79 376.46l0 4.47 6.68 0 0 0.5c0,0.85 -0.15,1.6 -0.46,2.23 -0.3,0.64 -0.71,1.16 -1.25,1.56 -0.54,0.39 -1.16,0.7 -1.87,0.9 -0.72,0.21 -1.5,0.32 -2.36,0.32 -1.59,0 -2.92,-0.33 -3.99,-1 -1.07,-0.66 -1.88,-1.66 -2.44,-3.02 -0.54,-1.35 -0.81,-3.03 -0.81,-5.04 0,-1.93 0.28,-3.56 0.84,-4.89 0.56,-1.32 1.36,-2.32 2.39,-3.02 1.03,-0.69 2.27,-1.03 3.73,-1.03 1.42,0 2.64,0.33 3.63,0.99 0.98,0.66 1.68,1.71 2.09,3.15l5.9 -2.41c-1.05,-2.37 -2.5,-4.1 -4.35,-5.21 -1.86,-1.1 -4.29,-1.65 -7.32,-1.65 -2.72,0 -5.09,0.56 -7.12,1.7 -2.03,1.12 -3.6,2.75 -4.7,4.86 -1.1,2.1 -1.64,4.62 -1.64,7.55 0,2.98 0.51,5.51 1.56,7.61 1.04,2.1 2.51,3.69 4.38,4.78 1.89,1.09 4.05,1.63 6.5,1.63 2.36,0 4.29,-0.5 5.79,-1.49 0.94,-0.62 1.68,-1.44 2.27,-2.41l0.26 3.49 4.45 0 0 -14.57 -12.16 0z"/>
  <polygon class="fil0" points="643.45,391.03 643.45,363.72 664.22,363.72 664.22,368.77 649.84,368.77 649.84,374.94 661.21,374.94 661.21,379.73 649.84,379.73 649.84,385.98 664.8,385.98 664.8,391.03 "/>
  <polygon class="fil0" points="702.04,363.72 702.04,391.03 694.87,391.03 685.89,375.64 683.71,371.38 683.62,371.38 683.79,376.22 683.79,391.03 678.14,391.03 678.14,363.72 685.32,363.72 694.26,379.11 696.48,383.42 696.56,383.42 696.4,378.53 696.4,363.72 "/>
  <polygon class="fil0" points="717.29,391.03 717.29,363.72 738.05,363.72 738.05,368.77 723.67,368.77 723.67,374.94 735.04,374.94 735.04,379.73 723.67,379.73 723.67,385.98 738.63,385.98 738.63,391.03 "/>
  <path class="fil0" d="M758.24 368.69l5.35 0c1.52,0 2.64,0.29 3.36,0.89 0.73,0.59 1.1,1.53 1.1,2.83 0,1.27 -0.37,2.21 -1.1,2.81 -0.72,0.61 -1.84,0.91 -3.36,0.91l-5.35 0 0 -7.44zm17.88 22.34l-7.22 -11.17c1.14,-0.36 2.13,-0.88 2.96,-1.55 1.77,-1.45 2.65,-3.54 2.65,-6.27 0,-2.53 -0.89,-4.56 -2.67,-6.07 -1.79,-1.49 -4.26,-2.25 -7.42,-2.25l-12.44 0 0 27.31 6.26 0 0 -10.22 4.7 0 6.06 10.22 7.12 0z"/>
  <path class="fil0" d="M795.78 380.11l7.25 0 -3.63 -11.51 -3.62 11.51zm17.22 10.92l-6.59 0 -2.1 -6.41 -9.85 0 -2.11 6.41 -6.46 0 9.72 -27.31 7.66 0 9.73 27.31z"/>
  <polygon class="fil0" points="831.66,385.98 845.63,385.98 845.63,391.02 825.28,391.02 825.28,363.73 831.66,363.73 "/>
  <polygon class="fil0" points="885.35,391.03 878.96,391.03 878.96,363.72 885.35,363.72 "/>
  <polygon class="fil0" points="924.45,363.72 924.45,391.03 917.28,391.03 908.3,375.64 906.12,371.38 906.03,371.38 906.2,376.22 906.2,391.03 900.55,391.03 900.55,363.72 907.72,363.72 916.67,379.11 918.89,383.42 918.97,383.42 918.8,378.53 918.8,363.72 "/>
  <path class="fil0" d="M949.95 363.31c2.5,0 4.7,0.41 6.6,1.22 1.89,0.82 3.53,2.02 4.9,3.62l-3.3 4.13c-1.15,-1.32 -2.4,-2.31 -3.75,-2.95 -1.34,-0.65 -2.88,-0.98 -4.61,-0.98 -1.1,0 -2,0.14 -2.68,0.4 -0.69,0.26 -1.19,0.61 -1.5,1.05 -0.32,0.45 -0.48,0.94 -0.48,1.49 0,0.66 0.28,1.22 0.85,1.68 0.56,0.45 1.49,0.83 2.78,1.14l4.86 1.12c2.69,0.6 4.65,1.5 5.87,2.7 1.23,1.2 1.84,2.79 1.84,4.74 0,1.87 -0.49,3.47 -1.47,4.78 -0.97,1.31 -2.3,2.31 -3.99,2.98 -1.69,0.67 -3.65,1.01 -5.87,1.01 -1.85,0 -3.57,-0.21 -5.18,-0.64 -1.6,-0.43 -3.05,-1.02 -4.32,-1.8 -1.28,-0.77 -2.36,-1.66 -3.24,-2.65l3.34 -4.3c0.66,0.83 1.47,1.57 2.43,2.24 0.96,0.66 2.05,1.17 3.24,1.55 1.2,0.37 2.44,0.56 3.73,0.56 1.01,0 1.88,-0.12 2.59,-0.35 0.71,-0.24 1.25,-0.57 1.61,-1 0.35,-0.43 0.53,-0.94 0.53,-1.55 0,-0.66 -0.22,-1.21 -0.68,-1.66 -0.45,-0.44 -1.28,-0.8 -2.49,-1.08l-5.27 -1.19c-1.57,-0.36 -2.94,-0.85 -4.11,-1.47 -1.16,-0.62 -2.07,-1.43 -2.71,-2.42 -0.65,-0.99 -0.97,-2.2 -0.97,-3.64 0,-1.66 0.46,-3.14 1.36,-4.47 0.9,-1.33 2.22,-2.37 3.93,-3.12 1.72,-0.76 3.77,-1.14 6.16,-1.14z"/>
  <path class="fil0" d="M998.08 363.72l0 16.35c0,3.8 -1.01,6.65 -3.01,8.54 -2.01,1.89 -4.95,2.84 -8.86,2.84 -3.9,0 -6.85,-0.95 -8.86,-2.84 -2,-1.89 -3,-4.74 -3,-8.54l0 -16.35 6.38 0 0 16.3c0,2.13 0.46,3.71 1.36,4.74 0.91,1.03 2.29,1.55 4.12,1.55 1.84,0 3.22,-0.52 4.12,-1.55 0.91,-1.03 1.36,-2.61 1.36,-4.74l0 -16.3 6.39 0z"/>
  <path class="fil0" d="M1019.05 368.69l5.36 0c1.51,0 2.63,0.29 3.36,0.89 0.72,0.59 1.09,1.53 1.09,2.83 0,1.27 -0.37,2.21 -1.09,2.81 -0.73,0.61 -1.85,0.91 -3.36,0.91l-5.36 0 0 -7.44zm17.88 22.34l-7.22 -11.17c1.13,-0.36 2.13,-0.88 2.96,-1.55 1.77,-1.45 2.65,-3.54 2.65,-6.27 0,-2.53 -0.89,-4.56 -2.67,-6.07 -1.79,-1.49 -4.26,-2.25 -7.42,-2.25l-12.44 0 0 27.31 6.26 0 0 -10.22 4.7 0 6.06 10.22 7.12 0z"/>
  <path class="fil0" d="M1056.59 380.11l7.25 0 -3.63 -11.51 -3.62 11.51zm17.21 10.92l-6.58 0 -2.1 -6.41 -9.85 0 -2.11 6.41 -6.46 0 9.72 -27.31 7.66 0 9.72 27.31z"/>
  <polygon class="fil0" points="1109.98,363.72 1109.98,391.03 1102.82,391.03 1093.83,375.64 1091.65,371.38 1091.56,371.38 1091.73,376.22 1091.73,391.03 1086.08,391.03 1086.08,363.72 1093.25,363.72 1102.2,379.11 1104.42,383.42 1104.5,383.42 1104.34,378.53 1104.34,363.72 "/>
  <path class="fil0" d="M1148.92 383.37c-0.55,1.83 -1.38,3.33 -2.51,4.53 -1.13,1.21 -2.48,2.1 -4.06,2.67 -1.58,0.58 -3.3,0.88 -5.17,0.88 -2.72,0 -5.07,-0.57 -7.05,-1.7 -1.97,-1.13 -3.5,-2.75 -4.57,-4.85 -1.08,-2.09 -1.61,-4.6 -1.61,-7.52 0,-2.93 0.53,-5.43 1.61,-7.54 1.07,-2.09 2.6,-3.71 4.57,-4.83 1.98,-1.14 4.31,-1.7 7,-1.7 1.87,0 3.58,0.26 5.14,0.79 1.55,0.52 2.87,1.32 3.95,2.39 1.09,1.08 1.86,2.46 2.33,4.14l-5.69 2.36c-0.41,-1.68 -1.08,-2.86 -2,-3.54 -0.91,-0.68 -2.08,-1.01 -3.48,-1.01 -1.4,0 -2.62,0.33 -3.64,1.01 -1.03,0.68 -1.83,1.68 -2.39,3 -0.57,1.32 -0.85,2.97 -0.85,4.93 0,1.93 0.26,3.56 0.79,4.9 0.52,1.34 1.29,2.34 2.33,3.02 1.02,0.67 2.28,1.01 3.76,1.01 1.4,0 2.61,-0.37 3.6,-1.13 1.01,-0.77 1.7,-1.93 2.09,-3.5l5.85 1.69z"/>
  <polygon class="fil0" points="1161.98,391.03 1161.98,363.72 1182.74,363.72 1182.74,368.77 1168.36,368.77 1168.36,374.94 1179.74,374.94 1179.74,379.73 1168.36,379.73 1168.36,385.98 1183.32,385.98 1183.32,391.03 "/>
  <path class="fil1" d="M399.09 229.71l0 -7.02 9.14 -1.08c2.27,-0.48 3.79,-1.29 4.57,-2.43 0.78,-1.14 1.17,-3.39 1.17,-6.75l0 -94.7c0,-3.13 -0.42,-5.23 -1.26,-6.31 -0.83,-1.08 -2.51,-1.8 -5.02,-2.16l-8.6 -1.08 0 -7.02 54.69 0 0 7.02 -9.51 1.08c-2.04,0.24 -3.47,0.99 -4.3,2.25 -0.84,1.26 -1.26,3.51 -1.26,6.75l0 94.53c0,3.24 0.42,5.43 1.26,6.57 0.83,1.14 2.39,1.9 4.66,2.25l9.15 1.08 0 7.02 -54.69 0z"/>
  <path class="fil1" d="M467.58 229.71l0 -6.84 8.07 -1.26c1.8,-0.24 2.96,-0.93 3.5,-2.07 0.53,-1.14 0.8,-3.27 0.8,-6.39l0 -55.99c0,-4.21 -0.33,-7 -0.98,-8.38 -0.66,-1.38 -2.36,-2.18 -5.11,-2.43l-7.72 -1.08 0.9 -7.21 32.82 -1.98 1.79 1.27 0.53 17.28 0.54 0c2.75,-6.48 6.88,-11.43 12.38,-14.85 5.49,-3.42 11.65,-5.13 18.47,-5.13 6.69,0 12.19,1.26 16.49,3.78 4.3,2.52 7.5,6.12 9.59,10.8 2.09,4.68 3.14,10.39 3.14,17.1l0 48.08c0,2.64 0.38,4.44 1.17,5.4 0.77,0.96 2.3,1.62 4.57,1.98l7.35 0.72 0 7.2 -48.05 0 0 -6.84 6.45 -0.9c2.03,-0.36 3.32,-1.08 3.86,-2.16 0.53,-1.08 0.81,-2.94 0.81,-5.58l0 -45.19c0,-5.28 -0.4,-9.49 -1.17,-12.61 -0.78,-3.12 -2.24,-5.34 -4.39,-6.66 -2.16,-1.32 -5.15,-1.98 -8.97,-1.98 -4.06,0 -7.62,0.87 -10.67,2.61 -3.05,1.74 -5.47,4.35 -7.26,7.83 -1.8,3.49 -2.69,7.69 -2.69,12.61l0 43.03c0,2.64 0.27,4.5 0.81,5.58 0.54,1.08 1.7,1.74 3.49,1.98l7.71 1.44 0 6.84 -48.23 0z"/>
  <path class="fil1" d="M630.57 219.99c4.06,0 7.59,-0.84 10.57,-2.52 3,-1.68 5.36,-4.32 7.09,-7.93 1.73,-3.59 2.6,-7.92 2.6,-12.95l0 -45.02c-2.63,-2.16 -5.67,-3.87 -9.15,-5.13 -3.46,-1.26 -6.93,-1.89 -10.39,-1.89 -5.03,0 -9.12,1.35 -12.29,4.05 -3.17,2.7 -5.53,6.93 -7.08,12.69 -1.55,5.77 -2.33,13.27 -2.33,22.51 0,8.4 0.83,15.28 2.51,20.61 1.67,5.35 4.06,9.28 7.18,11.8 3.1,2.52 6.86,3.78 11.29,3.78zm-7.71 12.25c-8.25,0 -15.18,-1.72 -20.8,-5.14 -5.62,-3.41 -9.9,-8.61 -12.82,-15.57 -2.93,-6.96 -4.4,-15.37 -4.4,-25.21 0,-10.56 1.77,-19.72 5.29,-27.46 3.53,-7.74 8.61,-13.71 15.25,-17.91 6.63,-4.2 14.73,-6.3 24.29,-6.3 3.95,0 7.77,0.54 11.47,1.62 3.71,1.07 6.94,2.4 9.69,3.96l0 -29.17c0,-3.84 -0.44,-6.42 -1.34,-7.74 -0.9,-1.32 -2.91,-2.04 -6.01,-2.16l-7.89 -1.27 1.08 -7.19 36.04 -0.9 1.97 1.62 0 120.27c0,2.88 0.36,4.86 1.07,5.94 0.72,1.08 2.21,1.8 4.49,2.16l7.71 1.26 0 6.84 -33.53 1.26 -2.33 -14.76 -0.18 0c-2.28,3.36 -4.75,6.21 -7.44,8.55 -2.7,2.34 -5.87,4.14 -9.51,5.4 -3.64,1.27 -7.68,1.9 -12.1,1.9z"/>
  <path class="fil1" d="M733.31 232.24c-9.44,0 -16.62,-2.67 -21.52,-8.02 -4.9,-5.34 -7.35,-13.17 -7.35,-23.5l0 -43.93c0,-3.71 -0.36,-6.32 -1.08,-7.83 -0.71,-1.5 -2.38,-2.49 -5.01,-2.97l-6.46 -0.72 0.72 -7.2 33.71 -1.98 1.79 1.26 0 60.86c0,5.16 0.45,9.33 1.35,12.51 0.89,3.18 2.44,5.43 4.65,6.75 2.22,1.33 5.05,1.98 8.52,1.98 4.07,0 7.59,-0.87 10.58,-2.61 2.99,-1.74 5.26,-4.38 6.82,-7.92 1.55,-3.54 2.33,-7.53 2.33,-11.98l0 -39.97c0,-4.07 -0.33,-6.8 -0.99,-8.19 -0.66,-1.38 -2.3,-2.31 -4.93,-2.79l-6.28 -0.72 0.9 -7.2 33 -1.98 1.97 1.26 0 75.26c0,3 0.42,5.13 1.25,6.4 0.84,1.25 2.33,2.06 4.48,2.42l8.07 1.08 -0.18 7.03 -33.53 1.61 -2.32 -16.02 -0.54 0c-2.51,3.96 -5.18,7.17 -7.99,9.63 -2.8,2.47 -5.97,4.33 -9.5,5.59 -3.53,1.25 -7.68,1.89 -12.46,1.89z"/>
  <path class="fil1" d="M813.46 232.24l-2.69 -32.41 8.07 -0.73c1.91,5.76 4.18,10.48 6.81,14.14 2.63,3.66 5.68,6.33 9.15,8.01 3.46,1.69 7.35,2.52 11.66,2.52 5.25,0 9.47,-1.38 12.63,-4.14 3.17,-2.76 4.76,-6.48 4.76,-11.16 0,-3.12 -0.87,-5.61 -2.61,-7.47 -1.73,-1.86 -4.15,-3.43 -7.26,-4.68 -3.11,-1.26 -7.05,-2.55 -11.83,-3.87 -4.07,-1.2 -8.01,-2.55 -11.84,-4.06 -3.82,-1.5 -7.08,-3.26 -9.77,-5.31 -2.69,-2.04 -4.75,-4.68 -6.18,-7.92 -1.44,-3.24 -2.16,-7.14 -2.16,-11.7 0,-5.65 1.35,-10.65 4.04,-15.04 2.69,-4.38 6.48,-7.77 11.38,-10.17 4.9,-2.4 10.82,-3.6 17.76,-3.6 4.54,0 8.72,0.69 12.55,2.07 3.82,1.38 6.99,2.91 9.5,4.59l1.79 -6.66 6.64 0 2.15 30.07 -8.07 -0.72c-2.15,-7.08 -5.23,-12.43 -9.24,-16.03 -4,-3.6 -8.87,-5.4 -14.6,-5.4 -5.03,0 -8.94,1.14 -11.75,3.42 -2.81,2.28 -4.22,5.4 -4.22,9.36 0,3.12 0.84,5.65 2.51,7.56 1.68,1.93 4.1,3.49 7.26,4.69 3.18,1.2 6.97,2.52 11.39,3.96 4.54,1.32 8.7,2.76 12.46,4.32 3.77,1.56 7.03,3.42 9.77,5.58 2.75,2.16 4.82,4.84 6.19,8.01 1.38,3.18 2.07,7.06 2.07,11.61 0,6.25 -1.47,11.77 -4.4,16.57 -2.93,4.81 -7.02,8.44 -12.28,10.9 -5.26,2.45 -11.36,3.69 -18.29,3.69 -4.78,0 -9.29,-0.61 -13.53,-1.81 -4.25,-1.19 -7.92,-2.99 -11.03,-5.4l-2.33 7.21 -6.46 0z"/>
  <path class="fil1" d="M895.4 229.71l0 -7.02 9.15 -1.08c2.27,-0.48 3.79,-1.29 4.57,-2.43 0.78,-1.14 1.16,-3.39 1.16,-6.75l0 -94.7c0,-3.13 -0.41,-5.23 -1.25,-6.31 -0.83,-1.08 -2.51,-1.8 -5.02,-2.16l-8.61 -1.08 0 -7.02 54.69 0 0 7.02 -9.5 1.08c-2.04,0.24 -3.47,0.99 -4.31,2.25 -0.83,1.26 -1.25,3.51 -1.25,6.75l0 94.53c0,3.24 0.42,5.43 1.25,6.57 0.84,1.14 2.39,1.9 4.67,2.25l9.14 1.08 0 7.02 -54.69 0z"/>
  <path class="fil1" d="M963.9 229.71l0 -6.84 8.07 -1.26c1.79,-0.24 2.95,-0.93 3.49,-2.07 0.54,-1.14 0.81,-3.27 0.81,-6.39l0 -55.99c0,-4.21 -0.33,-7 -0.99,-8.38 -0.66,-1.38 -2.36,-2.18 -5.11,-2.43l-7.71 -1.08 0.9 -7.21 32.82 -1.98 1.78 1.27 0.54 17.28 0.54 0c2.75,-6.48 6.87,-11.43 12.37,-14.85 5.5,-3.42 11.66,-5.13 18.47,-5.13 6.7,0 12.19,1.26 16.5,3.78 4.3,2.52 7.5,6.12 9.59,10.8 2.09,4.68 3.14,10.39 3.14,17.1l0 48.08c0,2.64 0.39,4.44 1.16,5.4 0.78,0.96 2.31,1.62 4.57,1.98l7.36 0.72 0 7.2 -48.06 0 0 -6.84 6.46 -0.9c2.03,-0.36 3.31,-1.08 3.85,-2.16 0.54,-1.08 0.81,-2.94 0.81,-5.58l0 -45.19c0,-5.28 -0.39,-9.49 -1.17,-12.61 -0.77,-3.12 -2.24,-5.34 -4.39,-6.66 -2.15,-1.32 -5.14,-1.98 -8.97,-1.98 -4.06,0 -7.62,0.87 -10.66,2.61 -3.05,1.74 -5.47,4.35 -7.27,7.83 -1.79,3.49 -2.69,7.69 -2.69,12.61l0 43.03c0,2.64 0.28,4.5 0.81,5.58 0.54,1.08 1.7,1.74 3.5,1.98l7.71 1.44 0 6.84 -48.23 0z"/>
  <path class="fil1" d="M1126.89 219.99c4.06,0 7.59,-0.84 10.57,-2.52 2.99,-1.68 5.35,-4.32 7.09,-7.93 1.73,-3.59 2.6,-7.92 2.6,-12.95l0 -45.02c-2.64,-2.16 -5.69,-3.87 -9.15,-5.13 -3.46,-1.26 -6.93,-1.89 -10.4,-1.89 -5.02,0 -9.11,1.35 -12.28,4.05 -3.17,2.7 -5.53,6.93 -7.08,12.69 -1.56,5.77 -2.33,13.27 -2.33,22.51 0,8.4 0.83,15.28 2.51,20.61 1.67,5.35 4.06,9.28 7.17,11.8 3.11,2.52 6.87,3.78 11.3,3.78zm-7.72 12.25c-8.24,0 -15.18,-1.72 -20.79,-5.14 -5.62,-3.41 -9.9,-8.61 -12.83,-15.57 -2.92,-6.96 -4.39,-15.37 -4.39,-25.21 0,-10.56 1.77,-19.72 5.29,-27.46 3.52,-7.74 8.61,-13.71 15.25,-17.91 6.63,-4.2 14.72,-6.3 24.29,-6.3 3.95,0 7.77,0.54 11.47,1.62 3.71,1.07 6.94,2.4 9.69,3.96l0 -29.17c0,-3.84 -0.45,-6.42 -1.34,-7.74 -0.9,-1.32 -2.91,-2.04 -6.02,-2.16l-7.88 -1.27 1.08 -7.19 36.03 -0.9 1.98 1.62 0 120.27c0,2.88 0.35,4.86 1.07,5.94 0.72,1.08 2.21,1.8 4.49,2.16l7.7 1.26 0 6.84 -33.53 1.26 -2.33 -14.76 -0.18 0c-2.27,3.36 -4.75,6.21 -7.44,8.55 -2.69,2.34 -5.86,4.14 -9.5,5.4 -3.65,1.27 -7.68,1.9 -12.11,1.9z"/>
  <path class="fil2" d="M422.31 292.51l0 7.94 11.86 0 0 0.88c0,1.52 -0.26,2.85 -0.8,3.97 -0.54,1.13 -1.28,2.05 -2.24,2.76 -0.95,0.71 -2.06,1.25 -3.33,1.62 -1.27,0.37 -2.66,0.55 -4.17,0.55 -2.84,0 -5.21,-0.59 -7.11,-1.76 -1.9,-1.18 -3.35,-2.97 -4.32,-5.37 -0.98,-2.41 -1.46,-5.4 -1.46,-8.97 0,-3.44 0.5,-6.33 1.49,-8.69 1.01,-2.35 2.42,-4.14 4.25,-5.36 1.84,-1.23 4.04,-1.85 6.63,-1.85 2.54,0 4.69,0.59 6.45,1.77 1.76,1.18 3,3.04 3.73,5.59l10.48 -4.26c-1.86,-4.22 -4.43,-7.32 -7.73,-9.27 -3.29,-1.96 -7.63,-2.94 -13,-2.94 -4.84,0 -9.05,1 -12.67,3.01 -3.62,2.01 -6.4,4.89 -8.35,8.64 -1.95,3.76 -2.93,8.23 -2.93,13.43 0,5.29 0.93,9.81 2.78,13.53 1.86,3.72 4.46,6.56 7.8,8.49 3.35,1.94 7.19,2.91 11.54,2.91 4.2,0 7.63,-0.88 10.29,-2.65 1.66,-1.1 3.01,-2.49 4.06,-4.19l0.44 6.11 7.92 0 0 -25.89 -21.61 0z"/>
  <polygon class="fil2" points="454.39,318.4 454.39,269.85 491.31,269.85 491.31,278.82 465.74,278.82 465.74,289.78 485.96,289.78 485.96,298.31 465.74,298.31 465.74,309.42 492.33,309.42 492.33,318.4 "/>
  <polygon class="fil2" points="543.24,269.85 543.24,318.39 530.5,318.39 514.53,291.04 510.65,283.46 510.49,283.46 510.79,292.06 510.79,318.39 500.75,318.39 500.75,269.85 513.5,269.85 529.39,297.21 533.35,304.86 533.5,304.86 533.2,296.18 533.2,269.85 "/>
  <polygon class="fil2" points="555.03,318.4 555.03,269.85 591.95,269.85 591.95,278.82 566.39,278.82 566.39,289.78 586.6,289.78 586.6,298.31 566.39,298.31 566.39,309.42 592.98,309.42 592.98,318.4 "/>
  <path class="fil2" d="M612.53 278.68l9.52 0c2.69,0 4.68,0.52 5.97,1.58 1.3,1.05 1.95,2.74 1.95,5.04 0,2.25 -0.65,3.92 -1.95,5 -1.29,1.08 -3.28,1.61 -5.97,1.61l-9.52 0 0 -13.23zm31.79 39.72l-12.84 -19.86c2.02,-0.64 3.78,-1.55 5.26,-2.77 3.15,-2.56 4.73,-6.28 4.73,-11.14 0,-4.5 -1.59,-8.1 -4.77,-10.77 -3.17,-2.67 -7.56,-4.01 -13.18,-4.01l-22.12 0 0 48.55 11.13 0 0 -18.17 8.35 0 10.77 18.17 12.67 0z"/>
  <path class="fil2" d="M663.95 298.98l12.89 0 -6.44 -20.45 -6.45 20.45zm30.62 19.41l-11.72 0 -3.74 -11.4 -17.5 0 -3.73 11.4 -11.5 0 17.28 -48.54 13.62 0 17.29 48.54z"/>
  <polygon class="fil2" points="712.44,309.42 737.27,309.42 737.27,318.4 701.09,318.4 701.09,269.85 712.44,269.85 "/>
  <polygon class="fil2" points="776.54,318.39 765.19,318.39 765.19,269.85 776.54,269.85 "/>
  <polygon class="fil2" points="830.74,269.85 830.74,318.39 818,318.39 802.03,291.04 798.14,283.46 797.99,283.46 798.29,292.06 798.29,318.39 788.26,318.39 788.26,269.85 801,269.85 816.89,297.21 820.85,304.86 820.99,304.86 820.7,296.18 820.7,269.85 "/>
  <path class="fil2" d="M860.77 269.11c4.44,0 8.35,0.73 11.72,2.17 3.37,1.45 6.27,3.6 8.71,6.44l-5.85 7.36c-2.05,-2.35 -4.28,-4.11 -6.67,-5.26 -2.39,-1.16 -5.13,-1.73 -8.2,-1.73 -1.95,0 -3.54,0.23 -4.76,0.7 -1.23,0.46 -2.12,1.09 -2.68,1.87 -0.56,0.79 -0.84,1.67 -0.84,2.65 0,1.18 0.5,2.17 1.5,2.98 1,0.81 2.65,1.49 4.95,2.02l8.64 1.99c4.79,1.08 8.27,2.68 10.43,4.81 2.18,2.14 3.27,4.95 3.27,8.43 0,3.33 -0.87,6.16 -2.61,8.49 -1.73,2.33 -4.09,4.1 -7.1,5.3 -3,1.2 -6.48,1.8 -10.44,1.8 -3.27,0 -6.33,-0.38 -9.19,-1.14 -2.85,-0.76 -5.42,-1.83 -7.69,-3.2 -2.27,-1.37 -4.19,-2.94 -5.75,-4.71l5.93 -7.65c1.18,1.47 2.61,2.8 4.33,3.98 1.7,1.17 3.62,2.09 5.74,2.75 2.13,0.66 4.34,1 6.63,1 1.81,0 3.35,-0.21 4.61,-0.63 1.28,-0.42 2.23,-1.01 2.86,-1.77 0.64,-0.75 0.96,-1.68 0.96,-2.75 0,-1.18 -0.41,-2.16 -1.21,-2.94 -0.8,-0.78 -2.28,-1.42 -4.43,-1.92l-9.38 -2.13c-2.79,-0.64 -5.21,-1.51 -7.28,-2.61 -2.08,-1.11 -3.69,-2.54 -4.84,-4.31 -1.15,-1.76 -1.72,-3.91 -1.72,-6.47 0,-2.94 0.8,-5.59 2.42,-7.94 1.6,-2.35 3.94,-4.2 6.99,-5.55 3.05,-1.35 6.7,-2.03 10.95,-2.03z"/>
  <path class="fil2" d="M931.01 269.85l0 29.05c0,6.77 -1.78,11.83 -5.34,15.19 -3.57,3.36 -8.82,5.04 -15.75,5.04 -6.94,0 -12.18,-1.68 -15.75,-5.04 -3.56,-3.36 -5.35,-8.42 -5.35,-15.19l0 -29.05 11.36 0 0 28.98c0,3.77 0.8,6.58 2.42,8.42 1.6,1.84 4.05,2.76 7.32,2.76 3.27,0 5.71,-0.92 7.33,-2.76 1.6,-1.84 2.41,-4.65 2.41,-8.42l0 -28.98 11.35 0z"/>
  <path class="fil2" d="M952.99 278.68l9.52 0c2.68,0 4.68,0.52 5.97,1.58 1.3,1.05 1.94,2.74 1.94,5.04 0,2.25 -0.64,3.92 -1.94,5 -1.29,1.08 -3.29,1.61 -5.97,1.61l-9.52 0 0 -13.23zm31.79 39.72l-12.84 -19.86c2.02,-0.64 3.78,-1.55 5.26,-2.77 3.15,-2.56 4.73,-6.28 4.73,-11.14 0,-4.5 -1.6,-8.1 -4.77,-10.77 -3.17,-2.67 -7.57,-4.01 -13.19,-4.01l-22.12 0 0 48.55 11.14 0 0 -18.17 8.35 0 10.77 18.17 12.67 0z"/>
  <path class="fil2" d="M1004.41 298.98l12.89 0 -6.45 -20.45 -6.44 20.45zm30.62 19.41l-11.72 0 -3.74 -11.4 -17.51 0 -3.73 11.4 -11.5 0 17.29 -48.54 13.62 0 17.29 48.54z"/>
  <polygon class="fil2" points="1084.03,269.85 1084.03,318.39 1071.29,318.39 1055.32,291.04 1051.44,283.46 1051.29,283.46 1051.58,292.06 1051.58,318.39 1041.54,318.39 1041.54,269.85 1054.29,269.85 1070.18,297.21 1074.15,304.86 1074.29,304.86 1073.99,296.18 1073.99,269.85 "/>
  <path class="fil2" d="M1137.94 304.79c-0.98,3.23 -2.47,5.92 -4.47,8.06 -2,2.13 -4.41,3.7 -7.21,4.74 -2.81,1.02 -5.88,1.54 -9.2,1.54 -4.83,0 -9,-1.01 -12.52,-3.01 -3.52,-2.01 -6.23,-4.88 -8.13,-8.61 -1.9,-3.73 -2.86,-8.19 -2.86,-13.38 0,-5.21 0.96,-9.67 2.86,-13.39 1.9,-3.73 4.61,-6.6 8.13,-8.61 3.52,-2.01 7.66,-3.01 12.45,-3.01 3.32,0 6.36,0.46 9.12,1.39 2.76,0.94 5.1,2.36 7.03,4.27 1.93,1.91 3.31,4.37 4.14,7.36l-10.11 4.19c-0.73,-2.99 -1.91,-5.09 -3.55,-6.3 -1.64,-1.19 -3.7,-1.8 -6.19,-1.8 -2.49,0 -4.65,0.61 -6.48,1.8 -1.83,1.21 -3.25,2.99 -4.25,5.34 -1,2.36 -1.51,5.27 -1.51,8.76 0,3.43 0.47,6.33 1.4,8.71 0.93,2.38 2.31,4.16 4.14,5.37 1.83,1.2 4.07,1.8 6.7,1.8 2.49,0 4.63,-0.67 6.41,-2.02 1.78,-1.35 3.02,-3.42 3.7,-6.22l10.4 3.02z"/>
  <polygon class="fil2" points="1145.85,318.4 1145.85,269.85 1182.77,269.85 1182.77,278.82 1157.21,278.82 1157.21,289.78 1177.42,289.78 1177.42,298.31 1157.21,298.31 1157.21,309.42 1183.8,309.42 1183.8,318.4 "/>
  <path class="fil1" d="M358.03 14.12c-1.32,-2.08 -1.83,-2.82 -1.83,-2.82 -0.9,0.03 -1.53,0.87 -1.36,3.65 0,0 0.43,7.2 0.88,13.87 0.5,7.24 0.41,14.7 -3.32,21.41 -4.14,7.43 -8.51,10.85 -16.13,15.3 -7.8,4.51 -14.8,7.44 -14.8,7.44 0,0 6.08,5.41 14.65,16.23 5.19,6.41 1.55,13.47 -3.25,19.46 -4.84,6 -5.61,11.02 -6.03,15 -0.08,0.75 -0.21,1.53 -0.37,2.29 0,0 0.01,0 0.01,0.01 -0.47,2.71 -0.39,4.13 -4.51,7.86 -2.27,2.06 -0.89,6.5 0.35,8.34 0,0 7.93,-3.33 8.83,-12.76 0.02,-0.3 0.23,-2.46 0.36,-3.33 1.54,-9.61 3.78,-10.46 12.07,-18.74 8.38,-8.27 3.09,-19.14 1.58,-22.01 -1.1,-2.12 2.96,-5.66 9.24,-12.87 6.37,-7.24 11.2,-17.85 11.68,-29.41 0.48,-11.53 -4.22,-22.87 -8.05,-28.92z"/>
  <path class="fil1" d="M312.69 105.75c0.67,0.19 2.76,-4.66 2.69,-6.17 -0.07,-1.52 -0.88,-2.29 -1.99,-3.26 -1.14,-0.99 -6.32,-4.42 -6.32,-4.42 0,0 -2.08,4.87 1.16,7.17 1.03,0.73 3.66,2.55 3.89,3.83 0.12,0.68 -0.52,2.55 0.57,2.85z"/>
  <polygon class="fil1" points="30.66,289.08 326.64,289.08 326.64,275.56 30.66,275.56 "/>
  <polygon class="fil1" points="0,318.39 326.65,318.39 326.65,300.37 0,300.37 "/>
  <path class="fil1" d="M320.96 185.87c-1.72,2.92 -4.4,3.59 -6.45,3.59 -1.67,0 -2.92,-0.43 -2.95,-0.44l-0.64 -0.23 0.28 -0.62c0.01,-0.02 1.01,-2.25 1.15,-6 0.27,-7.24 -3.65,-12.17 -7.42,-16.93 -0.51,-0.63 -1,-1.26 -1.49,-1.89 -0.78,-1.01 -1.97,-2.22 -3.36,-3.62 -2.92,-2.94 -6.54,-6.61 -8.25,-10.56 -2.93,-6.76 -2.18,-13.67 -2.15,-13.95l0.08 -0.64 0.63 0.09c0.11,0.01 2.58,0.44 3.22,4.3 1.36,8.44 5.98,12.55 9.35,15.54 0.46,0.41 0.89,0.79 1.29,1.17 3.94,3.67 9.1,9.32 10.76,11.46 6.44,8.2 8.44,14.49 5.95,18.73zm-9.34 25.54c-1.55,3.42 -4.39,5.7 -8.48,6.76 -0.82,0.21 -1.62,0.32 -2.41,0.32 -0.61,0 -1.2,-0.06 -1.78,-0.19 -2.78,-0.61 -5.87,-3 -6.35,-4.46l-0.24 -0.74 0.77 -0.07c1.3,-0.13 2.52,-0.42 3.63,-0.87 4.93,-1.96 7.02,-6.43 5.59,-11.96 -1.06,-4.07 -3.03,-5.64 -4.94,-7.15 -1.81,-1.44 -3.51,-2.8 -3.87,-6.01 -0.13,-1.29 -0.22,-2.5 -0.31,-3.66 -0.34,-4.58 -0.61,-8.2 -3.29,-11.78 0,0 -0.44,-0.57 -0.46,-0.59 -1.3,-1.59 -2.93,-3.29 -4.66,-5.07 -2.91,-3.02 -5.93,-6.14 -7.66,-9.2 -1.19,-2.36 -2.46,-5.2 -2.88,-8.45 -0.38,-2.92 -0.02,-6.38 0.37,-10.03 0.27,-2.6 0.55,-5.28 0.54,-7.78 0,-6.66 -1.79,-10.42 -1.81,-10.45l-0.44 -0.89 1 -0.01c0.2,0 4.01,0.09 5.82,6.13 0.85,2.86 1.03,7.2 1.18,11.4 0.13,3.13 0.25,6.07 0.64,8.19 0.86,5.5 3.3,9.7 8.13,14.06l0.02 0.01c0.12,0.11 0.71,0.57 1.04,0.81l0.48 0.36c2.82,2.04 9.42,6.82 10.34,15.48 0.46,4.21 0.41,8.79 0.4,10.05 1.19,0.86 5.84,4.39 8.25,9.14 2.27,4.49 3.82,11.21 1.38,16.65zm-23 -1.42c-0.21,0.29 -0.42,0.57 -0.67,0.85 -1.26,1.39 -3.75,2.36 -6.17,2.36 -1.27,0 -2.52,-0.26 -3.56,-0.86 -0.09,-0.06 -0.27,-0.14 -0.5,-0.25 -0.84,-0.39 -1.46,-0.69 -1.75,-0.97l-0.46 -0.45 0.46 -0.44c0.21,-0.21 0.4,-0.4 0.59,-0.61 0.6,-0.61 1.16,-1.27 1.68,-1.98 2.71,-3.71 2.7,-6.77 2.7,-6.8 -0.02,-5.78 -1.85,-8.47 -4.87,-12.93 -1.27,-1.84 -2.69,-3.94 -4.26,-6.66 -5.62,-9.7 -1.02,-17.8 -0.82,-18.15l0.4 -0.69 0.56 0.57c0.2,0.12 2.58,1.87 2.79,5.87 -0.27,3.23 0.12,7.52 5.55,12.83 11.04,10.7 13.99,20.76 8.33,28.31zm-11.61 10.67c0,-0.01 0,-0.02 0.01,-0.04 0,0 0.01,0.02 0.03,0.04l-0.04 0zm-11.28 -139.7c-6.21,-5.62 -13.92,-12.61 -28.66,-5.49l-3.87 1.9 0.04 -1.04c0.01,-0.13 0.18,-3.14 4.1,-5.82 11.42,-8.22 25.75,-3.48 33.39,5.11 2.04,2.27 3.24,5.44 3.19,7.07l-0.04 0.18 -0.14 0.43 -0.28 0.01c-0.72,0.39 -1.49,0.55 -2.24,0.55 -1.5,0 -2.94,-0.62 -3.71,-1.3 -0.58,-0.51 -1.17,-1.05 -1.78,-1.6zm58.74 80c-7.53,-10.87 -9.48,-18.46 -9.48,-18.46 0.02,-0.02 0.02,-0.02 0.01,-0.04 0,0 -2.72,-3.03 -3.71,-4.63 -2.09,-3.33 -2.8,-7.43 -2.56,-11.53 0.1,-1.62 0.25,-2.72 0.32,-3.65 0.11,-1.76 -0.75,-3.97 -2.09,-5.11 -5.55,-4.7 -8.82,-8.47 -10.22,-10.75 -7.61,-12.94 -2.13,-20.63 -0.69,-22.97 2.92,-4.78 11.43,-8.57 12.71,-9.17 1.41,-0.66 3.24,-1.75 2.35,-3.5 -0.86,-1.68 -8.33,-10.89 -9.5,-31.57 -0.83,-15.01 8.74,-26.73 16.04,-33.41 4.16,-3.3 4.1,-5.19 3.9,-6.04 -0.83,-0.51 -3.8,0.54 -7.93,2.56 -6.74,3.33 -18.15,11.51 -22.61,21.48 -5.34,11.99 -4.33,26.32 -5.01,36.79 -0.08,0.96 -0.35,2.5 -0.67,3.5 -2.66,7.59 -11.29,2.98 -11.95,2.62 -2.27,-1.33 -4.88,-2.82 -6.58,-3.68 -11.46,-5.75 -26.22,-4.36 -35.3,4.23 -13.85,13.12 -6.98,31.2 -1.84,37.94 -0.44,0.22 -34.76,13.3 -68.73,4.5 -27.17,-6.72 -53.2,-2.82 -65.82,14.35 -4.06,5.52 -10.12,17.95 -5.54,42.59 1.08,5.79 1.91,7.82 4.74,18.25 2.58,9.52 6.2,25.62 -2.77,30.39 -19.99,10.64 -14.34,27.47 -14.34,27.47 0,0 23.51,-5.03 26.29,-34.67 1.24,-13.33 -6.91,-32.03 -7.93,-47.34 -1.25,-18.71 7.87,-28.36 13.14,-32.42 6.45,-4.97 24.88,-11.51 42.06,-3.5 3.83,1.79 7.56,3.75 11.08,5.56 6.38,3.16 12.02,5.33 16.03,5.48 13.56,0.51 29.27,-4.03 44.24,-7.77 10.88,-2.72 28.34,-9.45 28.34,-9.45 0,0 12.54,13.97 6.76,32.36 -1.21,3.83 -2.12,6.81 -3.83,11.7 -0.92,2.63 -1.7,8.14 -0.98,11.81 0.55,2.77 1.01,6.08 2.67,12.21 0.1,0.37 1,4.12 1.27,7.75 0.17,2.19 -0.2,6.24 -1.61,8.66 -0.77,1.31 -1.54,2.26 -3.21,2.64 -1.84,0.42 -3.69,-0.79 -9.29,-3.66 -4.55,-2.32 -18.05,-9.35 -32.77,-6 0,0 -5.64,1.12 -12.7,3.73 -4.28,1.58 -11.81,1.92 -16.45,0.9 -5.18,-1.12 -14.2,-3.47 -18.77,-4.75 1.59,-9.5 2.58,-16.13 1.91,-17.7 -2.24,-5.2 -14.35,-13.96 -19.91,-17.47 -5.3,-3.33 -6.77,1.3 -5.75,7.41 2.42,14.6 1.61,36.17 -22.27,41.98 -1.51,0.37 -2.41,1.53 -3.09,3.05 -3.83,8.4 -12.37,30.67 -12.42,30.95 -0.76,1.69 -0.06,2.72 0.67,2.85 3.36,0.61 4.46,3.38 4.49,5.52l-45.3 0 0 11.27 266.78 0 0 -11.27 -17.76 0c-0.32,-0.51 -3.88,-6.28 -3.87,-6.33 -3.23,-1.23 -4.95,-1.99 -6.35,-3.95 -0.63,-0.9 -1.07,-1.91 -1.37,-2.96l-1.5 -4.36c-3.78,-0.44 -10.66,-1.71 -15.83,-5.54 2.2,7.14 3.91,14.35 4.52,16.43 0.2,0.71 0.53,1.43 1.27,1.5 3.16,0.32 4.76,2.79 4.83,5.21l-114.75 0c-0.32,-0.51 -3.88,-6.28 -3.87,-6.33 -4.15,-1.58 -7.06,-3.15 -8.48,-6.31 0,0 -3.62,-8.33 -3.01,-13.39 0.79,-6.44 8,-11.2 8,-11.2 0,0 -5.44,-1.48 -8.21,-1.39 -4.34,0.12 -5.6,4.89 -12.59,8.8 -1.82,1.02 -3.33,0.96 -2.54,3.66 1.06,3.58 5.26,15.87 6.3,19.45 0.2,0.71 0.53,1.43 1.27,1.5 3.16,0.32 4.5,2.81 4.6,5.21l-33.14 0c-0.23,-0.39 -3.66,-6.28 -3.71,-6.29 -3.85,-1.49 -5.54,-3.93 -4.69,-7.92 0.25,-1.14 1.67,-4.55 2.12,-5.61 3.36,-8.08 9.67,-8.9 12.6,-9.81 7.52,-2.35 12.66,-4.2 17.12,-7.42 1.27,-0.92 2.64,-2.48 4.24,-4.19 3.19,-3.44 7.3,-4.46 10.4,-3.84 13.6,2.45 25.72,6.45 25.72,6.45 0,0 13.99,-6.24 23.84,-7.97 8.23,-1.44 15.43,0.2 21.24,2.55 3.62,1.46 7.7,3.13 11.46,5.55 7.65,4.94 13.71,6.51 13.77,6.54 0,0 -5.76,6.4 -7.03,7.25 -1.43,0.96 -2.67,0.88 -4.32,-0.36 -1.49,-1.11 -3.9,-3.12 -3.9,-3.12l-10.15 17.56c0,0 5.58,0.01 10.63,-0.32 0,0 4.72,3.02 10.06,-1.22 4.61,-3.66 9.52,-7.29 16.44,-9.43 4.15,-1.29 6.13,-3.3 7.2,-5.13 0.71,-1.21 0.86,-3.22 0.76,-4.59 1.32,1.66 5.36,4.35 9.07,5.79 4.57,1.87 8.83,2.59 13.08,2.19 3.34,-0.29 6.73,-1.25 10.37,-3.03 16.14,-7.84 12.89,-23.74 12.89,-23.74 16.47,-7.34 12.67,-25.17 1.09,-41.88z"/>
 </g>
</svg>
