<?xml version="1.0" encoding="UTF-8"?>
<!DOCTYPE svg PUBLIC "-//W3C//DTD SVG 1.1//EN" "http://www.w3.org/Graphics/SVG/1.1/DTD/svg11.dtd">
<!-- Creator: CorelDRAW -->
<svg xmlns="http://www.w3.org/2000/svg" xml:space="preserve" width="224px" height="302px" version="1.1" style="shape-rendering:geometricPrecision; text-rendering:geometricPrecision; image-rendering:optimizeQuality; fill-rule:evenodd; clip-rule:evenodd"
viewBox="0 0 26.71 35.97"
 xmlns:xlink="http://www.w3.org/1999/xlink"
 xmlns:xodm="http://www.corel.com/coreldraw/odm/2003">
 <defs>
  <style type="text/css">
   <![CDATA[
    .fil3 {fill:#194B9B;fill-rule:nonzero}
    .fil0 {fill:#97272A;fill-rule:nonzero}
    .fil2 {fill:#99292B;fill-rule:nonzero}
    .fil1 {fill:white;fill-rule:nonzero}
   ]]>
  </style>
 </defs>
 <g id="Layer_x0020_1">
  <metadata id="CorelCorpID_0Corel-Layer"/>
  <path class="fil0" d="M22.97 11.93l-19.22 0c-1.33,0 -2.41,1.08 -2.41,2.41l0 19.22c0,1.33 1.08,2.41 2.41,2.41l19.22 0c1.33,0 2.41,-1.08 2.41,-2.41l0 -19.22c0,-1.33 -1.08,-2.41 -2.41,-2.41z"/>
  <path class="fil1" d="M21.95 15.14c-0.08,-0.12 -0.11,-0.17 -0.11,-0.17 -0.05,0 -0.09,0.05 -0.08,0.22 0,0 0.03,0.44 0.05,0.85 0.03,0.44 0.03,0.9 -0.2,1.31 -0.25,0.45 -0.52,0.66 -0.99,0.93 -0.48,0.28 -0.91,0.46 -0.91,0.46 0,0 0.38,0.33 0.9,0.99 0.32,0.39 0.1,0.82 -0.2,1.19 -0.3,0.36 -0.34,0.67 -0.37,0.91 0,0.05 -0.01,0.1 -0.02,0.14l0 0c-0.03,0.17 -0.02,0.26 -0.28,0.48 -0.14,0.13 -0.05,0.4 0.02,0.51 0,0 0.49,-0.2 0.55,-0.78 0,-0.01 0.01,-0.15 0.02,-0.2 0.09,-0.59 0.23,-0.64 0.74,-1.14 0.51,-0.51 0.19,-1.17 0.1,-1.35 -0.07,-0.13 0.18,-0.34 0.56,-0.78 0.39,-0.45 0.69,-1.09 0.72,-1.8 0.03,-0.7 -0.26,-1.4 -0.5,-1.77z"/>
  <path class="fil1" d="M19.17 20.74c0.05,0.01 0.17,-0.29 0.17,-0.38 -0.01,-0.09 -0.05,-0.14 -0.12,-0.2 -0.07,-0.06 -0.39,-0.27 -0.39,-0.27 0,0 -0.13,0.3 0.07,0.44 0.06,0.05 0.23,0.16 0.24,0.23 0.01,0.05 -0.03,0.16 0.03,0.18z"/>
  <polygon class="fil1" points="1.88,31.93 20.03,31.93 20.03,31.11 1.88,31.11 "/>
  <polygon class="fil1" points="0,33.72 20.03,33.72 20.03,32.62 0,32.62 "/>
  <path class="fil1" d="M19.68 25.63c-0.1,0.18 -0.27,0.22 -0.39,0.22 -0.11,0 -0.18,-0.03 -0.19,-0.03l-0.03 -0.01 0.01 -0.04c0,0 0.07,-0.14 0.07,-0.36 0.02,-0.45 -0.22,-0.75 -0.45,-1.04 -0.03,-0.04 -0.06,-0.08 -0.09,-0.11 -0.05,-0.07 -0.12,-0.14 -0.21,-0.22 -0.18,-0.18 -0.4,-0.41 -0.51,-0.65 -0.17,-0.41 -0.13,-0.83 -0.13,-0.85l0.01 -0.04 0.04 0c0,0.01 0.16,0.03 0.19,0.27 0.09,0.51 0.37,0.76 0.58,0.95 0.03,0.02 0.05,0.04 0.08,0.07 0.24,0.22 0.55,0.57 0.66,0.7 0.39,0.5 0.51,0.88 0.36,1.14zm-0.57 1.56c-0.1,0.21 -0.27,0.35 -0.52,0.41 -0.05,0.02 -0.1,0.02 -0.15,0.02 -0.04,0 -0.07,0 -0.11,-0.01 -0.17,-0.04 -0.36,-0.18 -0.39,-0.27l-0.01 -0.05 0.05 0c0.07,-0.01 0.15,-0.03 0.22,-0.05 0.3,-0.12 0.43,-0.4 0.34,-0.73 -0.06,-0.25 -0.19,-0.35 -0.3,-0.44 -0.11,-0.09 -0.22,-0.17 -0.24,-0.37 -0.01,-0.08 -0.01,-0.15 -0.02,-0.22 -0.02,-0.28 -0.04,-0.5 -0.2,-0.72 0,0 -0.03,-0.03 -0.03,-0.04 -0.08,-0.09 -0.18,-0.2 -0.28,-0.31 -0.18,-0.18 -0.37,-0.37 -0.47,-0.56 -0.08,-0.14 -0.16,-0.31 -0.18,-0.51 -0.02,-0.18 0,-0.39 0.02,-0.62 0.02,-0.16 0.04,-0.32 0.04,-0.47 0,-0.41 -0.12,-0.64 -0.12,-0.64l-0.02 -0.05 0.06 0c0.01,0 0.24,0 0.35,0.37 0.06,0.17 0.07,0.44 0.08,0.7 0,0.19 0.01,0.37 0.04,0.5 0.05,0.33 0.2,0.59 0.5,0.86l0 0c0,0 0.04,0.03 0.06,0.05l0.03 0.02c0.17,0.12 0.58,0.41 0.63,0.94 0.03,0.26 0.03,0.54 0.03,0.62 0.07,0.05 0.36,0.26 0.5,0.55 0.14,0.28 0.24,0.69 0.09,1.02zm-1.41 -0.09c-0.01,0.02 -0.03,0.04 -0.04,0.06 -0.08,0.08 -0.23,0.14 -0.38,0.14 -0.08,0 -0.16,-0.02 -0.22,-0.05 0,-0.01 -0.02,-0.01 -0.03,-0.02 -0.05,-0.02 -0.09,-0.04 -0.11,-0.06l-0.03 -0.02 0.03 -0.03c0.02,-0.01 0.03,-0.03 0.04,-0.04 0.04,-0.04 0.07,-0.08 0.1,-0.12 0.17,-0.23 0.17,-0.41 0.17,-0.41 0,-0.36 -0.12,-0.52 -0.3,-0.79 -0.08,-0.12 -0.17,-0.24 -0.26,-0.41 -0.35,-0.59 -0.07,-1.09 -0.05,-1.11l0.02 -0.04 0.04 0.03c0.01,0.01 0.15,0.12 0.17,0.36 -0.02,0.2 0,0.46 0.34,0.79 0.67,0.65 0.86,1.26 0.51,1.72zm-0.71 0.66l0 -0.01c0,0 0,0 0,0.01l0 0zm-0.7 -8.54c-0.38,-0.34 -0.85,-0.77 -1.75,-0.33l-0.24 0.12 0 -0.07c0,-0.01 0.01,-0.19 0.25,-0.35 0.7,-0.51 1.58,-0.22 2.05,0.31 0.13,0.14 0.2,0.33 0.2,0.43l0 0.01 -0.01 0.03 -0.02 0c-0.05,0.02 -0.09,0.03 -0.14,0.03 -0.09,0 -0.18,-0.04 -0.23,-0.08 -0.03,-0.03 -0.07,-0.06 -0.11,-0.1zm3.61 4.89c-0.47,-0.66 -0.58,-1.13 -0.58,-1.13 0,0 0,0 0,0 0,0 -0.17,-0.18 -0.23,-0.28 -0.13,-0.21 -0.17,-0.46 -0.16,-0.71 0.01,-0.1 0.02,-0.16 0.02,-0.22 0.01,-0.11 -0.05,-0.24 -0.13,-0.31 -0.34,-0.29 -0.54,-0.52 -0.62,-0.66 -0.47,-0.79 -0.13,-1.26 -0.05,-1.4 0.18,-0.29 0.7,-0.52 0.78,-0.56 0.09,-0.04 0.2,-0.11 0.15,-0.21 -0.06,-0.11 -0.51,-0.67 -0.58,-1.93 -0.06,-0.92 0.53,-1.63 0.98,-2.04 0.25,-0.2 0.25,-0.32 0.24,-0.37 -0.05,-0.03 -0.24,0.03 -0.49,0.16 -0.41,0.2 -1.11,0.7 -1.38,1.31 -0.33,0.73 -0.27,1.6 -0.31,2.24 -0.01,0.06 -0.02,0.16 -0.04,0.22 -0.17,0.46 -0.7,0.18 -0.74,0.16 -0.14,-0.08 -0.3,-0.18 -0.4,-0.23 -0.7,-0.35 -1.61,-0.26 -2.16,0.26 -0.85,0.8 -0.43,1.91 -0.12,2.32 -0.02,0.01 -2.13,0.81 -4.21,0.27 -1.67,-0.41 -3.26,-0.17 -4.04,0.88 -0.25,0.34 -0.62,1.1 -0.34,2.6 0.07,0.35 0.12,0.48 0.29,1.11 0.16,0.59 0.38,1.57 -0.17,1.86 -1.22,0.65 -0.88,1.68 -0.88,1.68 0,0 1.45,-0.31 1.62,-2.12 0.07,-0.81 -0.43,-1.96 -0.49,-2.89 -0.08,-1.14 0.48,-1.73 0.81,-1.98 0.39,-0.3 1.52,-0.7 2.57,-0.21 0.24,0.11 0.47,0.22 0.68,0.33 0.4,0.2 0.74,0.33 0.99,0.34 0.83,0.03 1.79,-0.25 2.71,-0.47 0.67,-0.17 1.74,-0.58 1.74,-0.58 0,0 0.77,0.85 0.41,1.97 -0.07,0.24 -0.13,0.42 -0.23,0.72 -0.06,0.16 -0.11,0.5 -0.06,0.72 0.03,0.17 0.06,0.37 0.16,0.75 0.01,0.02 0.06,0.25 0.08,0.47 0.01,0.13 -0.01,0.38 -0.1,0.53 -0.05,0.08 -0.09,0.14 -0.2,0.16 -0.11,0.02 -0.22,-0.05 -0.57,-0.22 -0.28,-0.15 -1.1,-0.57 -2.01,-0.37 0,0 -0.34,0.07 -0.77,0.23 -0.27,0.09 -0.73,0.11 -1.01,0.05 -0.32,-0.07 -0.87,-0.21 -1.15,-0.29 0.09,-0.58 0.15,-0.98 0.11,-1.08 -0.13,-0.32 -0.88,-0.85 -1.22,-1.07 -0.32,-0.2 -0.41,0.08 -0.35,0.46 0.15,0.89 0.1,2.21 -1.37,2.56 -0.09,0.02 -0.14,0.09 -0.19,0.19 -0.23,0.51 -0.75,1.87 -0.76,1.89 -0.04,0.1 0,0.16 0.04,0.17 0.21,0.04 0.28,0.21 0.28,0.34l-2.78 0 0 0.69 16.36 0 0 -0.69 -1.09 0c-0.02,-0.03 -0.24,-0.39 -0.24,-0.39 -0.19,-0.07 -0.3,-0.12 -0.39,-0.24 -0.03,-0.05 -0.06,-0.12 -0.08,-0.18l-0.09 -0.27c-0.23,-0.02 -0.66,-0.1 -0.97,-0.34 0.13,0.44 0.24,0.88 0.27,1.01 0.02,0.04 0.04,0.09 0.08,0.09 0.2,0.02 0.29,0.17 0.3,0.32l-7.04 0c-0.02,-0.03 -0.24,-0.39 -0.23,-0.39 -0.26,-0.1 -0.44,-0.19 -0.52,-0.38 0,0 -0.23,-0.51 -0.19,-0.82 0.05,-0.39 0.49,-0.69 0.49,-0.69 0,0 -0.33,-0.09 -0.5,-0.08 -0.27,0.01 -0.35,0.3 -0.77,0.54 -0.12,0.06 -0.21,0.06 -0.16,0.22 0.07,0.22 0.32,0.97 0.39,1.19 0.01,0.04 0.03,0.09 0.07,0.09 0.2,0.02 0.28,0.17 0.29,0.32l-2.04 0c-0.01,-0.03 -0.22,-0.39 -0.22,-0.39 -0.24,-0.09 -0.34,-0.24 -0.29,-0.48 0.01,-0.07 0.1,-0.28 0.13,-0.34 0.21,-0.5 0.59,-0.55 0.77,-0.6 0.46,-0.14 0.78,-0.26 1.05,-0.45 0.08,-0.06 0.16,-0.16 0.26,-0.26 0.2,-0.21 0.45,-0.27 0.64,-0.24 0.83,0.15 1.58,0.4 1.58,0.4 0,0 0.85,-0.38 1.46,-0.49 0.5,-0.09 0.94,0.01 1.3,0.16 0.22,0.09 0.47,0.19 0.7,0.34 0.47,0.3 0.84,0.39 0.85,0.4 0,0 -0.36,0.39 -0.43,0.44 -0.09,0.06 -0.17,0.05 -0.27,-0.02 -0.09,-0.07 -0.24,-0.19 -0.24,-0.19l-0.62 1.07c0,0 0.34,0 0.65,-0.02 0,0 0.29,0.18 0.62,-0.08 0.28,-0.22 0.58,-0.44 1.01,-0.57 0.25,-0.08 0.37,-0.2 0.44,-0.31 0.04,-0.08 0.05,-0.2 0.04,-0.28 0.09,0.1 0.33,0.26 0.56,0.35 0.28,0.11 0.54,0.16 0.8,0.13 0.21,-0.02 0.42,-0.07 0.64,-0.18 0.99,-0.48 0.79,-1.45 0.79,-1.45 1.01,-0.45 0.78,-1.54 0.07,-2.56z"/>
  <path class="fil2" d="M0 4.47l0 -0.31 0.21 0c0.06,0 0.12,-0.01 0.17,-0.03 0.05,-0.02 0.09,-0.06 0.12,-0.11 0.03,-0.05 0.05,-0.11 0.05,-0.2l0 -2.88c0,-0.09 -0.02,-0.16 -0.05,-0.22 -0.03,-0.05 -0.07,-0.08 -0.12,-0.1 -0.05,-0.03 -0.11,-0.04 -0.17,-0.04l-0.21 0 0 -0.31 2.04 0 0 0.31 -0.23 0c-0.06,0 -0.12,0.01 -0.17,0.04 -0.05,0.02 -0.09,0.05 -0.12,0.1 -0.02,0.06 -0.04,0.13 -0.04,0.23l0 2.87c0,0.08 0.02,0.15 0.05,0.2 0.03,0.05 0.07,0.09 0.12,0.11 0.05,0.02 0.1,0.03 0.16,0.03l0.23 0 0 0.31 -2.04 0z"/>
  <path class="fil2" d="M2.31 4.47l0 -0.31 0.04 0c0.09,0 0.17,-0.01 0.23,-0.02 0.06,-0.02 0.11,-0.06 0.15,-0.12 0.04,-0.06 0.05,-0.15 0.05,-0.26l0 -1.75c0,-0.11 -0.01,-0.19 -0.05,-0.24 -0.03,-0.06 -0.08,-0.1 -0.14,-0.11 -0.06,-0.02 -0.14,-0.03 -0.22,-0.03l-0.03 0 0 -0.31 1.24 0 0.08 0.42 0.03 0c0.1,-0.16 0.21,-0.29 0.35,-0.37 0.14,-0.09 0.32,-0.13 0.55,-0.13 0.31,0 0.55,0.09 0.72,0.27 0.16,0.18 0.25,0.47 0.25,0.87l0 1.36c0,0.13 0.01,0.22 0.04,0.27 0.03,0.06 0.07,0.1 0.13,0.12 0.06,0.02 0.13,0.03 0.22,0.03l0.02 0 0 0.31 -1.31 0 0 -1.93c0,-0.25 -0.03,-0.45 -0.09,-0.59 -0.07,-0.14 -0.19,-0.21 -0.36,-0.21 -0.13,0 -0.24,0.04 -0.32,0.13 -0.07,0.08 -0.13,0.2 -0.16,0.33 -0.03,0.14 -0.04,0.29 -0.04,0.46l0 1.12c0,0.11 0.01,0.19 0.04,0.24 0.03,0.06 0.08,0.09 0.14,0.11 0.07,0.02 0.14,0.03 0.23,0.03l0.02 0 0 0.31 -1.81 0z"/>
  <path class="fil2" d="M7.85 4.09c0.23,0 0.39,-0.1 0.47,-0.29 0.09,-0.2 0.13,-0.5 0.13,-0.91 0,-0.39 -0.04,-0.69 -0.13,-0.89 -0.08,-0.21 -0.24,-0.32 -0.47,-0.32 -0.13,0 -0.24,0.05 -0.32,0.15 -0.08,0.09 -0.14,0.23 -0.17,0.41 -0.04,0.18 -0.06,0.4 -0.06,0.66 0,0.4 0.04,0.7 0.13,0.89 0.08,0.2 0.22,0.3 0.42,0.3zm-0.26 0.44c-0.25,0 -0.47,-0.05 -0.65,-0.17 -0.18,-0.11 -0.32,-0.29 -0.41,-0.53 -0.09,-0.24 -0.14,-0.55 -0.14,-0.93 0,-0.38 0.05,-0.69 0.14,-0.93 0.09,-0.25 0.23,-0.43 0.41,-0.54 0.18,-0.12 0.39,-0.18 0.64,-0.18 0.22,0 0.4,0.04 0.54,0.12 0.13,0.09 0.24,0.2 0.32,0.33l0.03 0c0,-0.1 -0.01,-0.21 -0.01,-0.33 0,-0.12 -0.01,-0.23 -0.01,-0.33l0 -0.36c0,-0.11 -0.02,-0.19 -0.06,-0.24 -0.05,-0.05 -0.11,-0.09 -0.18,-0.1 -0.07,-0.02 -0.15,-0.03 -0.23,-0.03l-0.05 0 0 -0.31 1.42 0 0 3.71c0,0.12 0.02,0.21 0.05,0.28 0.04,0.06 0.09,0.11 0.16,0.13 0.07,0.03 0.15,0.04 0.24,0.04l0.05 0 0 0.31 -1.17 0 -0.15 -0.45 -0.03 0c-0.09,0.16 -0.2,0.28 -0.34,0.37 -0.15,0.1 -0.33,0.14 -0.57,0.14z"/>
  <path class="fil2" d="M11.5 4.53c-0.34,0 -0.59,-0.09 -0.75,-0.28 -0.16,-0.19 -0.24,-0.48 -0.24,-0.88l0 -1.32c0,-0.11 -0.01,-0.2 -0.04,-0.26 -0.03,-0.06 -0.07,-0.11 -0.12,-0.13 -0.06,-0.02 -0.14,-0.03 -0.24,-0.03l-0.01 0 0 -0.31 1.3 0 0 1.88c0,0.17 0.02,0.31 0.04,0.44 0.03,0.12 0.08,0.22 0.14,0.29 0.07,0.07 0.16,0.1 0.27,0.1 0.13,0 0.23,-0.03 0.31,-0.11 0.08,-0.07 0.14,-0.17 0.17,-0.31 0.04,-0.13 0.06,-0.29 0.06,-0.47l0 -1.13c0,-0.12 -0.02,-0.2 -0.05,-0.25 -0.04,-0.06 -0.08,-0.09 -0.14,-0.11 -0.06,-0.01 -0.12,-0.02 -0.2,-0.02l-0.02 0 0 -0.31 1.3 0 0 2.47c0,0.11 0.02,0.19 0.05,0.25 0.03,0.05 0.08,0.09 0.14,0.1 0.06,0.02 0.13,0.02 0.21,0.02l0.04 0 0 0.31 -1.17 0 -0.13 -0.41 -0.03 0c-0.1,0.16 -0.22,0.29 -0.37,0.36 -0.15,0.08 -0.32,0.11 -0.52,0.11z"/>
  <path class="fil2" d="M15.22 4.53c-0.28,0 -0.5,-0.03 -0.67,-0.08 -0.17,-0.06 -0.29,-0.14 -0.37,-0.24 -0.08,-0.1 -0.12,-0.21 -0.12,-0.35 0,-0.11 0.03,-0.2 0.08,-0.26 0.05,-0.06 0.12,-0.11 0.19,-0.14 0.08,-0.02 0.17,-0.03 0.25,-0.03 0,0.24 0.06,0.43 0.17,0.55 0.11,0.13 0.28,0.19 0.49,0.19 0.2,0 0.35,-0.04 0.44,-0.12 0.09,-0.08 0.13,-0.18 0.13,-0.29 0,-0.09 -0.02,-0.16 -0.07,-0.22 -0.05,-0.06 -0.12,-0.11 -0.22,-0.16 -0.11,-0.05 -0.25,-0.11 -0.42,-0.17 -0.22,-0.07 -0.41,-0.16 -0.56,-0.24 -0.14,-0.09 -0.25,-0.19 -0.33,-0.32 -0.07,-0.12 -0.11,-0.28 -0.11,-0.47 0,-0.31 0.12,-0.54 0.35,-0.7 0.23,-0.15 0.54,-0.23 0.92,-0.23 0.24,0 0.43,0.02 0.58,0.08 0.15,0.05 0.26,0.12 0.32,0.21 0.07,0.08 0.11,0.17 0.11,0.27 0,0.12 -0.05,0.22 -0.14,0.29 -0.09,0.07 -0.23,0.1 -0.41,0.1 0,-0.19 -0.05,-0.34 -0.15,-0.45 -0.1,-0.1 -0.23,-0.15 -0.4,-0.15 -0.15,0 -0.27,0.03 -0.35,0.09 -0.08,0.07 -0.12,0.16 -0.12,0.27 0,0.13 0.05,0.23 0.15,0.3 0.1,0.07 0.29,0.15 0.56,0.25 0.21,0.07 0.39,0.15 0.54,0.23 0.14,0.08 0.26,0.19 0.33,0.31 0.08,0.12 0.12,0.28 0.12,0.46 0,0.32 -0.11,0.57 -0.34,0.75 -0.22,0.18 -0.54,0.27 -0.95,0.27z"/>
  <path class="fil2" d="M16.87 4.47l0 -0.31 0.21 0c0.06,0 0.11,-0.01 0.16,-0.03 0.05,-0.02 0.09,-0.06 0.13,-0.11 0.03,-0.05 0.04,-0.11 0.04,-0.2l0 -2.88c0,-0.09 -0.01,-0.16 -0.04,-0.22 -0.04,-0.05 -0.08,-0.08 -0.13,-0.1 -0.05,-0.03 -0.1,-0.04 -0.16,-0.04l-0.21 0 0 -0.31 2.03 0 0 0.31 -0.22 0c-0.06,0 -0.12,0.01 -0.17,0.04 -0.05,0.02 -0.09,0.05 -0.12,0.1 -0.03,0.06 -0.04,0.13 -0.04,0.23l0 2.87c0,0.08 0.01,0.15 0.04,0.2 0.03,0.05 0.07,0.09 0.12,0.11 0.06,0.02 0.11,0.03 0.17,0.03l0.22 0 0 0.31 -2.03 0z"/>
  <path class="fil2" d="M19.18 4.47l0 -0.31 0.03 0c0.1,0 0.17,-0.01 0.23,-0.02 0.07,-0.02 0.12,-0.06 0.15,-0.12 0.04,-0.06 0.06,-0.15 0.06,-0.26l0 -1.75c0,-0.11 -0.02,-0.19 -0.05,-0.24 -0.03,-0.06 -0.08,-0.1 -0.14,-0.11 -0.07,-0.02 -0.14,-0.03 -0.23,-0.03l-0.02 0 0 -0.31 1.24 0 0.08 0.42 0.03 0c0.09,-0.16 0.21,-0.29 0.34,-0.37 0.14,-0.09 0.33,-0.13 0.56,-0.13 0.31,0 0.55,0.09 0.71,0.27 0.17,0.18 0.25,0.47 0.25,0.87l0 1.36c0,0.13 0.02,0.22 0.05,0.27 0.03,0.06 0.07,0.1 0.13,0.12 0.05,0.02 0.13,0.03 0.21,0.03l0.03 0 0 0.31 -1.31 0 0 -1.93c0,-0.25 -0.03,-0.45 -0.1,-0.59 -0.06,-0.14 -0.18,-0.21 -0.35,-0.21 -0.14,0 -0.24,0.04 -0.32,0.13 -0.08,0.08 -0.13,0.2 -0.16,0.33 -0.03,0.14 -0.05,0.29 -0.05,0.46l0 1.12c0,0.11 0.02,0.19 0.05,0.24 0.03,0.06 0.08,0.09 0.14,0.11 0.06,0.02 0.14,0.03 0.22,0.03l0.03 0 0 0.31 -1.81 0z"/>
  <path class="fil2" d="M24.71 4.09c0.23,0 0.39,-0.1 0.48,-0.29 0.09,-0.2 0.13,-0.5 0.13,-0.91 0,-0.39 -0.04,-0.69 -0.13,-0.89 -0.09,-0.21 -0.25,-0.32 -0.48,-0.32 -0.13,0 -0.23,0.05 -0.31,0.15 -0.08,0.09 -0.14,0.23 -0.18,0.41 -0.04,0.18 -0.05,0.4 -0.05,0.66 0,0.4 0.04,0.7 0.12,0.89 0.09,0.2 0.23,0.3 0.42,0.3zm-0.25 0.44c-0.26,0 -0.48,-0.05 -0.66,-0.17 -0.17,-0.11 -0.31,-0.29 -0.4,-0.53 -0.09,-0.24 -0.14,-0.55 -0.14,-0.93 0,-0.38 0.05,-0.69 0.14,-0.93 0.09,-0.25 0.23,-0.43 0.4,-0.54 0.18,-0.12 0.4,-0.18 0.65,-0.18 0.22,0 0.4,0.04 0.53,0.12 0.14,0.09 0.25,0.2 0.33,0.33l0.03 0c-0.01,-0.1 -0.01,-0.21 -0.01,-0.33 -0.01,-0.12 -0.01,-0.23 -0.01,-0.33l0 -0.36c0,-0.11 -0.02,-0.19 -0.07,-0.24 -0.04,-0.05 -0.1,-0.09 -0.17,-0.1 -0.07,-0.02 -0.15,-0.03 -0.24,-0.03l-0.04 0 0 -0.31 1.41 0 0 3.71c0,0.12 0.02,0.21 0.06,0.28 0.04,0.06 0.09,0.11 0.16,0.13 0.06,0.03 0.14,0.04 0.24,0.04l0.04 0 0 0.31 -1.17 0 -0.14 -0.45 -0.03 0c-0.09,0.16 -0.2,0.28 -0.35,0.37 -0.14,0.1 -0.33,0.14 -0.56,0.14z"/>
  <polygon class="fil3" points="0.43,8.21 0,8.21 0,5.34 0.43,5.34 "/>
  <path class="fil3" d="M1.45 6.93l0 1.28 -0.42 0 0 -2.15 0.4 0 0 0.35 0.03 0c0.05,-0.11 0.13,-0.2 0.23,-0.27 0.11,-0.07 0.24,-0.11 0.4,-0.11 0.15,0 0.28,0.03 0.39,0.09 0.11,0.07 0.19,0.16 0.26,0.28 0.06,0.12 0.09,0.27 0.09,0.44l0 1.37 -0.42 0 0 -1.32c0,-0.15 -0.04,-0.27 -0.12,-0.36 -0.09,-0.09 -0.2,-0.13 -0.34,-0.13 -0.1,0 -0.18,0.02 -0.26,0.06 -0.07,0.04 -0.13,0.1 -0.18,0.18 -0.04,0.08 -0.06,0.18 -0.06,0.29z"/>
  <path class="fil3" d="M5 6.59l-0.38 0.06c-0.02,-0.05 -0.04,-0.09 -0.07,-0.14 -0.04,-0.04 -0.08,-0.08 -0.14,-0.1 -0.06,-0.03 -0.13,-0.05 -0.22,-0.05 -0.12,0 -0.22,0.03 -0.3,0.08 -0.08,0.06 -0.12,0.12 -0.12,0.21 0,0.07 0.03,0.13 0.08,0.17 0.06,0.05 0.14,0.08 0.26,0.11l0.34 0.08c0.2,0.04 0.35,0.11 0.45,0.21 0.09,0.09 0.14,0.22 0.14,0.37 0,0.13 -0.04,0.24 -0.11,0.34 -0.07,0.11 -0.18,0.18 -0.31,0.24 -0.13,0.06 -0.28,0.09 -0.46,0.09 -0.24,0 -0.44,-0.06 -0.59,-0.16 -0.15,-0.1 -0.24,-0.25 -0.28,-0.44l0.41 -0.06c0.02,0.1 0.07,0.18 0.15,0.24 0.08,0.05 0.18,0.08 0.31,0.08 0.14,0 0.25,-0.03 0.33,-0.09 0.08,-0.06 0.12,-0.13 0.12,-0.21 0,-0.07 -0.02,-0.12 -0.07,-0.17 -0.05,-0.04 -0.13,-0.08 -0.23,-0.1l-0.37 -0.08c-0.2,-0.05 -0.35,-0.12 -0.44,-0.22 -0.1,-0.1 -0.15,-0.23 -0.15,-0.38 0,-0.13 0.04,-0.24 0.11,-0.33 0.07,-0.1 0.17,-0.17 0.3,-0.23 0.12,-0.05 0.26,-0.08 0.43,-0.08 0.23,0 0.41,0.05 0.54,0.15 0.14,0.1 0.23,0.24 0.27,0.41z"/>
  <path class="fil3" d="M6.86 7.32l0 -1.26 0.43 0 0 2.15 -0.42 0 0 -0.37 -0.02 0c-0.05,0.12 -0.13,0.21 -0.24,0.29 -0.11,0.07 -0.24,0.11 -0.4,0.11 -0.14,0 -0.26,-0.03 -0.37,-0.09 -0.1,-0.06 -0.19,-0.15 -0.25,-0.27 -0.06,-0.12 -0.09,-0.27 -0.09,-0.45l0 -1.37 0.42 0 0 1.32c0,0.15 0.04,0.26 0.12,0.35 0.08,0.09 0.19,0.13 0.32,0.13 0.08,0 0.16,-0.02 0.23,-0.06 0.08,-0.04 0.15,-0.1 0.2,-0.18 0.05,-0.08 0.08,-0.18 0.07,-0.3z"/>
  <path class="fil3" d="M7.85 8.21l0 -2.15 0.4 0 0 0.34 0.02 0c0.04,-0.11 0.11,-0.2 0.21,-0.27 0.1,-0.07 0.22,-0.1 0.34,-0.1 0.03,0 0.06,0 0.09,0 0.04,0 0.07,0.01 0.09,0.01l0 0.4c-0.02,-0.01 -0.05,-0.01 -0.09,-0.02 -0.04,0 -0.09,-0.01 -0.13,-0.01 -0.1,0 -0.19,0.02 -0.26,0.07 -0.08,0.04 -0.14,0.1 -0.19,0.17 -0.04,0.07 -0.06,0.15 -0.06,0.25l0 1.31 -0.42 0z"/>
  <path class="fil3" d="M10.06 7.92c0.12,0 0.22,-0.02 0.3,-0.06 0.08,-0.05 0.14,-0.11 0.19,-0.18 0.04,-0.08 0.06,-0.16 0.06,-0.24l0 -0.28c-0.01,0.01 -0.04,0.03 -0.08,0.04 -0.05,0.01 -0.09,0.02 -0.15,0.03 -0.05,0.01 -0.1,0.02 -0.16,0.03 -0.05,0 -0.09,0.01 -0.12,0.01 -0.09,0.01 -0.16,0.03 -0.23,0.06 -0.06,0.02 -0.12,0.05 -0.16,0.1 -0.04,0.05 -0.06,0.11 -0.06,0.18 0,0.1 0.04,0.18 0.12,0.24 0.08,0.05 0.17,0.07 0.29,0.07zm-0.09 0.34c-0.14,0 -0.26,-0.03 -0.37,-0.08 -0.11,-0.05 -0.2,-0.12 -0.26,-0.22 -0.06,-0.09 -0.1,-0.21 -0.1,-0.36 0,-0.12 0.03,-0.22 0.07,-0.3 0.05,-0.07 0.11,-0.14 0.19,-0.18 0.08,-0.05 0.17,-0.08 0.27,-0.11 0.1,-0.02 0.2,-0.04 0.3,-0.05 0.13,-0.01 0.23,-0.03 0.31,-0.04 0.08,-0.01 0.14,-0.02 0.18,-0.04 0.03,-0.03 0.05,-0.06 0.05,-0.11l0 -0.01c0,-0.13 -0.03,-0.22 -0.1,-0.29 -0.07,-0.06 -0.17,-0.1 -0.31,-0.1 -0.14,0 -0.25,0.03 -0.33,0.09 -0.08,0.07 -0.14,0.14 -0.17,0.21l-0.39 -0.09c0.05,-0.13 0.11,-0.23 0.2,-0.32 0.09,-0.08 0.2,-0.14 0.32,-0.17 0.11,-0.04 0.24,-0.06 0.37,-0.06 0.08,0 0.17,0.01 0.27,0.03 0.1,0.02 0.19,0.06 0.27,0.11 0.09,0.06 0.16,0.13 0.21,0.23 0.06,0.1 0.08,0.23 0.08,0.38l0 1.43 -0.41 0 0 -0.29 -0.01 0c-0.03,0.05 -0.07,0.11 -0.13,0.16 -0.05,0.05 -0.12,0.09 -0.2,0.13 -0.09,0.03 -0.19,0.05 -0.31,0.05z"/>
  <path class="fil3" d="M12.01 6.93l0 1.28 -0.42 0 0 -2.15 0.4 0 0 0.35 0.03 0c0.05,-0.11 0.13,-0.2 0.23,-0.27 0.11,-0.07 0.24,-0.11 0.4,-0.11 0.15,0 0.28,0.03 0.39,0.09 0.11,0.07 0.2,0.16 0.26,0.28 0.06,0.12 0.09,0.27 0.09,0.44l0 1.37 -0.42 0 0 -1.32c0,-0.15 -0.04,-0.27 -0.12,-0.36 -0.09,-0.09 -0.2,-0.13 -0.34,-0.13 -0.1,0 -0.18,0.02 -0.26,0.06 -0.07,0.04 -0.13,0.1 -0.18,0.18 -0.04,0.08 -0.06,0.18 -0.06,0.29z"/>
  <path class="fil3" d="M14.85 8.26c-0.2,0 -0.38,-0.05 -0.53,-0.15 -0.15,-0.09 -0.27,-0.22 -0.35,-0.39 -0.08,-0.17 -0.12,-0.36 -0.12,-0.57 0,-0.22 0.04,-0.42 0.12,-0.58 0.09,-0.17 0.2,-0.3 0.35,-0.4 0.15,-0.09 0.33,-0.14 0.53,-0.14 0.16,0 0.31,0.03 0.44,0.09 0.13,0.06 0.23,0.15 0.31,0.26 0.08,0.1 0.12,0.23 0.14,0.38l-0.41 0c-0.02,-0.11 -0.07,-0.19 -0.15,-0.27 -0.08,-0.07 -0.19,-0.1 -0.32,-0.1 -0.12,0 -0.22,0.03 -0.31,0.09 -0.09,0.06 -0.15,0.15 -0.2,0.26 -0.05,0.11 -0.08,0.24 -0.08,0.4 0,0.15 0.03,0.29 0.08,0.4 0.04,0.12 0.11,0.21 0.2,0.27 0.09,0.06 0.19,0.09 0.31,0.09 0.08,0 0.15,-0.01 0.21,-0.04 0.07,-0.03 0.12,-0.07 0.17,-0.13 0.04,-0.05 0.07,-0.12 0.09,-0.2l0.41 0c-0.02,0.14 -0.06,0.27 -0.14,0.37 -0.07,0.11 -0.17,0.2 -0.3,0.26 -0.13,0.07 -0.28,0.1 -0.45,0.1z"/>
  <path class="fil3" d="M17.12 8.26c-0.22,0 -0.4,-0.05 -0.55,-0.14 -0.15,-0.09 -0.27,-0.22 -0.35,-0.39 -0.09,-0.16 -0.13,-0.36 -0.13,-0.58 0,-0.22 0.04,-0.41 0.13,-0.58 0.08,-0.17 0.19,-0.3 0.34,-0.4 0.15,-0.09 0.33,-0.14 0.53,-0.14 0.12,0 0.24,0.02 0.35,0.06 0.11,0.04 0.22,0.11 0.31,0.19 0.09,0.09 0.16,0.2 0.21,0.34 0.05,0.13 0.08,0.3 0.08,0.49l0 0.15 -1.71 0 0 -0.31 1.3 0c0,-0.11 -0.02,-0.21 -0.07,-0.29 -0.04,-0.09 -0.11,-0.16 -0.19,-0.21 -0.08,-0.05 -0.17,-0.07 -0.28,-0.07 -0.12,0 -0.22,0.03 -0.31,0.08 -0.09,0.06 -0.15,0.14 -0.2,0.23 -0.05,0.09 -0.07,0.19 -0.07,0.3l0 0.24c0,0.15 0.02,0.27 0.08,0.37 0.05,0.1 0.12,0.18 0.21,0.23 0.09,0.05 0.2,0.08 0.32,0.08 0.08,0 0.15,-0.01 0.22,-0.03 0.06,-0.03 0.12,-0.06 0.17,-0.11 0.04,-0.04 0.08,-0.1 0.11,-0.17l0.39 0.07c-0.03,0.12 -0.09,0.22 -0.17,0.31 -0.08,0.09 -0.18,0.16 -0.3,0.2 -0.13,0.05 -0.27,0.08 -0.42,0.08z"/>
  <path class="fil3" d="M19.9 7.09l1.5 0 0 0.36 -1.5 0 0 -0.36zm-0.07 1.12l-0.46 0 1.03 -2.87 0.5 0 1.03 2.87 -0.46 0 -0.81 -2.35 -0.02 0 -0.81 2.35z"/>
  <path class="fil3" d="M22.72 7.14c0,0.15 0.03,0.28 0.07,0.39 0.04,0.12 0.11,0.21 0.19,0.27 0.08,0.07 0.19,0.1 0.31,0.1 0.12,0 0.23,-0.04 0.31,-0.1 0.08,-0.07 0.15,-0.16 0.19,-0.28 0.04,-0.11 0.07,-0.24 0.07,-0.38 0,-0.15 -0.03,-0.27 -0.07,-0.39 -0.04,-0.11 -0.1,-0.2 -0.19,-0.26 -0.08,-0.07 -0.19,-0.1 -0.31,-0.1 -0.13,0 -0.23,0.03 -0.31,0.09 -0.09,0.06 -0.15,0.15 -0.19,0.26 -0.04,0.12 -0.07,0.25 -0.07,0.4zm-0.41 1.88l0 -2.96 0.41 0 0 0.35 0.04 0c0.02,-0.05 0.06,-0.1 0.1,-0.16 0.05,-0.06 0.11,-0.11 0.19,-0.15 0.08,-0.05 0.19,-0.07 0.33,-0.07 0.17,0 0.32,0.05 0.46,0.13 0.14,0.09 0.24,0.22 0.32,0.38 0.08,0.17 0.12,0.37 0.12,0.6 0,0.23 -0.04,0.43 -0.12,0.6 -0.07,0.16 -0.18,0.29 -0.32,0.38 -0.13,0.09 -0.29,0.13 -0.46,0.13 -0.13,0 -0.24,-0.02 -0.32,-0.06 -0.08,-0.04 -0.15,-0.1 -0.19,-0.16 -0.05,-0.05 -0.09,-0.11 -0.11,-0.15l-0.03 0 0 1.14 -0.42 0z"/>
  <path class="fil3" d="M25.16 7.14c0,0.15 0.02,0.28 0.06,0.39 0.05,0.12 0.11,0.21 0.2,0.27 0.08,0.07 0.18,0.1 0.3,0.1 0.13,0 0.23,-0.04 0.32,-0.1 0.08,-0.07 0.14,-0.16 0.19,-0.28 0.04,-0.11 0.06,-0.24 0.06,-0.38 0,-0.15 -0.02,-0.27 -0.06,-0.39 -0.04,-0.11 -0.11,-0.2 -0.19,-0.26 -0.09,-0.07 -0.19,-0.1 -0.32,-0.1 -0.12,0 -0.22,0.03 -0.31,0.09 -0.08,0.06 -0.14,0.15 -0.19,0.26 -0.04,0.12 -0.06,0.25 -0.06,0.4zm-0.41 1.88l0 -2.96 0.41 0 0 0.35 0.03 0c0.03,-0.05 0.06,-0.1 0.11,-0.16 0.04,-0.06 0.11,-0.11 0.19,-0.15 0.08,-0.05 0.19,-0.07 0.32,-0.07 0.17,0 0.33,0.05 0.47,0.13 0.13,0.09 0.24,0.22 0.32,0.38 0.08,0.17 0.11,0.37 0.11,0.6 0,0.23 -0.03,0.43 -0.11,0.6 -0.08,0.16 -0.19,0.29 -0.32,0.38 -0.14,0.09 -0.29,0.13 -0.47,0.13 -0.13,0 -0.23,-0.02 -0.32,-0.06 -0.08,-0.04 -0.14,-0.1 -0.19,-0.16 -0.05,-0.05 -0.08,-0.11 -0.11,-0.15l-0.02 0 0 1.14 -0.42 0z"/>
 </g>
</svg>
