<?xml version="1.0" encoding="UTF-8"?>
<!DOCTYPE svg PUBLIC "-//W3C//DTD SVG 1.1//EN" "http://www.w3.org/Graphics/SVG/1.1/DTD/svg11.dtd">
<!-- Creator: CorelDRAW -->
<svg xmlns="http://www.w3.org/2000/svg" xml:space="preserve" width="474px" height="241px" version="1.1" style="shape-rendering:geometricPrecision; text-rendering:geometricPrecision; image-rendering:optimizeQuality; fill-rule:evenodd; clip-rule:evenodd"
viewBox="0 0 107.46 54.61"
 xmlns:xlink="http://www.w3.org/1999/xlink"
 xmlns:xodm="http://www.corel.com/coreldraw/odm/2003">
 <defs>
  <style type="text/css">
   <![CDATA[
    .fil4 {fill:#1C2D5A;fill-rule:nonzero}
    .fil1 {fill:#507CBE;fill-rule:nonzero}
    .fil2 {fill:#2F6FA7;fill-rule:nonzero}
    .fil3 {fill:#29C2E3;fill-rule:nonzero}
    .fil0 {fill:#1C2D5A;fill-rule:nonzero}
   ]]>
  </style>
 </defs>
 <g id="Layer_x0020_1">
  <metadata id="CorelCorpID_0Corel-Layer"/>
  <g id="_2804474131584">
   <path class="fil0" d="M52.02 15.2l-2.22 -2.79 -2.52 0 0 8.13 2.52 0 0 -4.54 2.22 2.75 2.21 -2.75 0 4.54 2.53 0 0 -8.13 -2.53 0 -2.21 2.79zm12.32 4.13l0.5 1.21 2.84 0 -3.7 -8.13 -2.52 0 -3.7 8.13 2.85 0 0.49 -1.21 3.24 0zm-1.61 -4.31l0.83 2.2 -1.66 0 0.83 -2.2zm7.19 2.55l0 2.97 2.53 0 0 -2.97 3.5 -5.13 -2.85 0 -1.91 2.88 -1.91 -2.88 -2.86 0 3.5 5.13zm14.26 -3.03l0 -2.1 -7.08 0 0 8.1 2.53 0 0 -3 4.39 0 0.16 -1.94 -4.55 0 0 -1.06 4.55 0zm6.24 4.79l0.5 1.21 2.85 0 -3.7 -8.13 -2.52 0 -3.7 8.13 2.84 0 0.5 -1.21 3.23 0zm-1.61 -4.31l0.83 2.2 -1.66 0 0.83 -2.2zm8.47 -2.58l-2.53 0 0 8.1 2.53 0 0 -8.1zm1.78 0l0 8.1 2.53 0 0 -2.64 1.38 0 1.71 2.64 2.76 0 -1.88 -2.65c1.21,-0.28 1.64,-0.9 1.64,-2.42l0 -0.6c0,-0.91 -0.16,-1.44 -0.57,-1.85 -0.42,-0.41 -0.97,-0.58 -1.87,-0.58l-5.7 0zm2.53 3.43l0 -1.32 2.93 0c0.09,0 0.16,0.06 0.16,0.16l0 1.01c0,0.1 -0.07,0.15 -0.16,0.15l-2.93 0z"/>
   <path class="fil1" d="M51.26 25.06l-1.29 2.88 -1.95 -4.37 -0.6 0 2.27 5.03 0.56 0 1.31 -2.87 1.29 2.87 0.55 0 2.28 -5.03 -0.6 0 -1.95 4.37 -1.96 -4.37 -0.6 0 0.69 1.49zm12.65 -0.99l0 -0.5 -4.36 0 0 5.01 4.56 0 0 -0.5 -4.01 0 0 -1.76 3.71 0 0.1 -0.5 -3.81 0 0 -1.75 3.81 0zm14.87 3.11c-0.05,0.72 -0.26,0.9 -1.11,0.9l-1.69 0c-0.9,0 -1.11,-0.21 -1.11,-1.11l0 -1.79c0,-0.9 0.21,-1.11 1.11,-1.11l1.69 0c0.85,0 1.06,0.17 1.11,0.9l0.55 -0.09c-0.04,-0.49 -0.13,-0.73 -0.35,-0.95 -0.26,-0.26 -0.59,-0.36 -1.15,-0.36l-2 0c-0.57,0 -0.9,0.1 -1.15,0.36 -0.26,0.25 -0.36,0.58 -0.36,1.14l0 2.01c0,0.56 0.1,0.89 0.36,1.14 0.25,0.26 0.58,0.36 1.15,0.36l2 0c0.56,0 0.89,-0.1 1.15,-0.36 0.22,-0.22 0.31,-0.46 0.35,-0.95l-0.55 -0.09zm4.98 1.4l0.97 -1.76 2.97 0 0.96 1.76 0.61 0 -2.78 -5.03 -0.55 0 -2.78 5.03 0.6 0zm2.45 -4.51l1.22 2.26 -2.43 0 1.21 -2.26zm6.92 -0.5l0 5.01 0.55 0 0 -1.75 2.29 0 1.47 1.75 0.75 0 -1.55 -1.75c0.56,0 0.89,-0.1 1.15,-0.36 0.25,-0.26 0.35,-0.58 0.35,-1.15l0 -0.24c0,-0.57 -0.1,-0.9 -0.35,-1.15 -0.26,-0.26 -0.59,-0.36 -1.15,-0.36l-3.51 0zm0.55 0.5l2.81 0c0.9,0 1.1,0.21 1.1,1.11l0 0.04c0,0.9 -0.2,1.11 -1.1,1.11l-2.81 0 0 -2.26zm13.35 0l0 -0.5 -4.36 0 0 5.01 4.56 0 0 -0.5 -4.01 0 0 -1.76 3.71 0 0.1 -0.5 -3.81 0 0 -1.75 3.81 0z"/>
   <path class="fil2" d="M19.76 34.99c-10.01,-2.09 -16.42,-11.9 -14.33,-21.91 1.23,-5.87 5.12,-10.51 10.15,-12.91 -7.38,1.57 -13.51,7.34 -15.16,15.21 -2.22,10.63 4.59,21.06 15.23,23.28 7.86,1.65 15.62,-1.66 20.02,-7.8 -4.22,3.65 -10.03,5.36 -15.91,4.13z"/>
   <path class="fil0" d="M35 20.1c0.2,-5.43 -2.89,-10.21 -7.48,-12.44 2.91,2.39 4.71,6.06 4.56,10.12 -0.25,6.9 -6.05,12.29 -12.95,12.04 -4.05,-0.15 -7.59,-2.21 -9.76,-5.29 1.89,4.74 6.44,8.17 11.86,8.36 7.34,0.27 13.5,-5.46 13.77,-12.79z"/>
   <path class="fil3" d="M22.67 0.05c-6.76,0.5 -12.28,5 -14.41,11 2.57,-3.94 6.88,-6.69 11.94,-7.06 8.6,-0.65 16.09,5.8 16.74,14.41 0.38,5.05 -1.69,9.72 -5.21,12.84 5.62,-3 9.24,-9.12 8.73,-15.88 -0.68,-9.14 -8.65,-16 -17.79,-15.31z"/>
   <path class="fil3" d="M19.32 30.22c6.47,0 11.71,-5.25 11.71,-11.71 0,-6.47 -5.24,-11.71 -11.71,-11.71 -6.46,0 -11.71,5.24 -11.71,11.71 0,6.46 5.25,11.71 11.71,11.71z"/>
   <path class="fil4" d="M28.02 13.26c-0.03,-0.1 0.04,-0.14 0.17,-0.09 0.09,0.03 0.15,0.12 0.2,0.19 0.15,0.2 0.31,0.4 0.39,0.63 0.17,0.47 0.02,0.99 -0.06,1.49 -0.05,0.33 0.02,1 -0.07,0.99 -0.15,0.02 -0.29,-0.12 -0.33,-0.27 -0.04,-0.14 -0.01,-0.3 0.02,-0.45 0.09,-0.46 0.2,-0.93 0.13,-1.39 -0.05,-0.42 -0.17,-0.58 -0.36,-0.96l-0.09 -0.14z"/>
   <path class="fil4" d="M27.33 23.48c0.07,-0.05 0.26,0.15 0.26,0.24 -0.01,0.09 -0.06,0.17 -0.08,0.26 -0.04,0.13 0,0.28 -0.02,0.42 -0.02,0.17 -0.12,0.31 -0.22,0.45 -0.19,0.26 -0.37,0.51 -0.59,0.74 -0.16,0.15 -0.34,0.3 -0.56,0.33 -0.22,0.03 -0.47,-0.1 -0.51,-0.31 -0.03,-0.17 0.06,-0.33 0.14,-0.47 0.12,-0.19 0.24,-0.39 0.45,-0.47 0.08,-0.03 0.16,-0.05 0.24,-0.08 0.1,-0.05 0.17,-0.13 0.24,-0.21 0.22,-0.26 0.4,-0.46 0.55,-0.76l0.1 -0.14z"/>
   <path class="fil4" d="M23.14 25.4c0.16,0.2 0.36,0.2 0.62,0.27 0.16,0.04 0.3,0.22 0.46,0.27 0.19,0.07 0.31,0.1 0.49,0.21 0.27,0.18 0.07,0.51 -0.02,0.57 -0.23,0.13 -0.47,0.09 -0.69,-0.07 -0.38,-0.3 -0.62,-0.62 -1,-0.92 -0.17,-0.12 -0.32,-0.24 -0.48,-0.37 -0.14,-0.21 0.62,0.04 0.62,0.04z"/>
   <path class="fil4" d="M30.28 22.48c0.05,-0.2 -0.35,0.32 -0.5,0.4 -0.14,0.08 -0.32,0.27 -0.39,0.42 -0.23,0.46 0.22,0.64 0.28,0.58 0.03,-0.03 0.16,-0.32 0.18,-0.36 0.1,-0.2 0.13,-0.29 0.22,-0.49 0,0 0.17,-0.38 0.21,-0.55z"/>
   <path class="fil4" d="M28.97 24.92c0.01,0.04 -0.01,0.18 -0.03,0.21 -0.59,0.81 -0.87,1.14 -1.68,1.94 -0.24,0.23 -0.57,0.49 -0.83,0.7 -0.3,0.23 -0.59,0.42 -0.91,0.61 -0.19,0.12 -0.65,0.44 -0.63,0.37 0.26,-0.45 0.7,-0.73 1.11,-1.06 0.96,-0.79 1.88,-1.64 2.74,-2.54 0,0 0.22,-0.27 0.23,-0.23z"/>
   <path class="fil4" d="M11.66 26.87c0.04,0.09 0.27,0.09 0.36,0.13 0.32,0.12 0.47,0.45 0.49,0.8 0,0.09 0.19,0.23 0.1,0.23 -0.05,0 -0.46,-0.32 -0.49,-0.35 -0.35,-0.29 -0.55,-0.45 -0.72,-0.63 -0.19,-0.21 0.21,-0.29 0.26,-0.18z"/>
   <path class="fil4" d="M15.01 7.67c-0.16,0.07 -0.02,0.11 0.14,0.11 0.06,0 0.15,-0.03 0.21,-0.05 0.33,-0.06 0.67,-0.12 1,-0.19l0.2 -0.04c0.41,-0.07 0.82,-0.15 1.23,-0.23 0.05,-0.01 0.11,-0.02 0.16,-0.06 0.05,-0.04 0.22,-0.17 0.18,-0.22 -0.1,-0.14 -0.65,-0.01 -0.99,0.06 -1.13,0.22 -2.13,0.62 -2.13,0.62z"/>
   <path class="fil4" d="M18.8 24.8c0.05,0.08 0.12,0.15 0.15,0.24 0.04,0.08 0.04,0.19 -0.01,0.27 -0.06,0.08 -0.16,0.12 -0.26,0.11 -0.06,-0.01 -0.17,-0.13 -0.18,-0.16 -0.04,-0.2 -0.07,-0.35 0.01,-0.55 0.03,-0.09 0.21,-0.01 0.29,0.09z"/>
   <path class="fil0" d="M14.63 14.9c-0.01,0.02 -0.03,0.28 -0.01,0.29 0.16,0.04 0.34,-0.02 0.47,-0.13 0.13,-0.11 0.22,-0.26 0.31,-0.41 0.02,-0.04 0.05,-0.08 0.04,-0.12 0,-0.05 -0.05,-0.1 -0.1,-0.11 -0.05,-0.02 -0.11,-0.01 -0.16,-0.01 0,0 -0.47,0.22 -0.55,0.49zm-0.97 -0.88c-0.13,0.05 -0.63,0.23 -0.62,0.49 0.01,0.23 -0.11,0.39 -0.13,0.62 0,0.1 0,0.2 -0.03,0.3 -0.05,0.21 -0.24,0.38 -0.25,0.6 0,0.15 0.07,0.28 0.15,0.41 0.11,0.16 0.32,0.27 0.52,0.21 0.19,-0.05 0.21,-0.23 0.19,-0.44 -0.01,-0.11 -0.09,-0.4 -0.08,-0.44 0.03,-0.1 0.21,-0.05 0.3,-0.11 0.07,-0.04 0.08,-0.13 0.06,-0.21 -0.02,-0.07 -0.06,-0.13 -0.09,-0.2 -0.05,-0.14 -0.03,-0.55 0,-0.59 0.04,-0.06 0.12,-0.08 0.18,-0.12 0.17,-0.12 0.1,-0.36 -0.04,-0.51 -0.06,-0.06 -0.16,-0.01 -0.16,-0.01zm-3.03 -0.14c-0.05,0.11 -0.08,0.36 0.03,0.4 0.18,0.07 0.33,-0.03 0.48,0.09 0.08,0.06 0.15,0.14 0.19,0.24 0.1,0.21 0.24,0.22 0.47,0.26 0.06,0.01 0.29,-0.17 0.28,-0.26 0,-0.08 -0.03,-0.16 -0.07,-0.23 -0.06,-0.1 -0.15,-0.2 -0.11,-0.3 0.02,-0.05 0.06,-0.24 0.09,-0.27 0.14,-0.13 0.21,-0.14 0.28,-0.32 0,-0.02 0.01,-0.04 0.01,-0.07 0,-0.07 -0.1,-0.1 -0.17,-0.08 -0.11,0.02 -0.2,0.1 -0.3,0.15 -0.09,0.05 -0.14,0.03 -0.22,-0.05 -0.03,-0.02 -0.01,-0.17 -0.03,-0.19 -0.09,-0.1 -0.35,0.05 -0.46,0.11 0,0 -0.43,0.45 -0.47,0.52zm-0.35 -2.72c0.42,-0.54 1.6,-1.15 1.95,-1.1 0.02,0.17 -0.62,0.48 -0.47,0.69 0.13,0.19 0.27,0.25 0.48,0.18 0.17,-0.05 0.36,-0.17 0.5,-0.28 0.44,-0.36 1.12,-0.08 1.07,-0.25 -1.06,-0.48 0.47,-0.66 0.58,-0.95 -0.63,-0.1 -1.78,1.05 -1.93,0.96 -0.34,-0.19 0.71,-0.68 -0.16,-0.6 -0.42,-0.13 1.57,-0.77 2.3,-0.97 0.28,-0.07 1.11,-0.2 0.92,0.02 -0.39,0.45 0.57,0.56 0.03,0.71 -0.25,0 -0.75,0.06 -0.8,0.31 -0.04,0.18 1.49,-0.21 2.89,-0.25 0.41,-0.01 0.83,-0.11 1.19,-0.31 0.32,-0.17 0.58,-0.44 0.92,-0.55 0.21,-0.07 0.43,-0.07 0.65,-0.08 0.69,-0.01 1.38,-0.03 2.07,-0.05 0.24,0 0.48,-0.01 0.7,-0.08 0.33,-0.09 0.62,-0.32 0.96,-0.35 0.49,-0.04 0.91,0.3 1.27,0.63 0.74,0.66 1.49,1.33 2.06,2.15 -0.47,0.04 -0.77,-0.45 -1.07,-0.82 -0.29,-0.37 -0.47,-0.85 -0.93,-0.97 0.81,1.21 -0.36,0.77 0.41,2.23 0.8,0.17 1.09,0.41 1.39,1.17 0.35,0.9 -0.06,1.35 -0.01,1.84 0.09,0.87 0.92,1.4 0.65,1.58 -0.39,0.14 -0.62,-0.47 -1,-0.64 -0.31,-0.14 -0.81,-0.06 -0.83,0.28 -0.01,0.16 0.18,0.52 0.34,0.5 0.1,0 0.19,-0.08 0.28,-0.03 0.04,0.02 0.06,0.08 0.08,0.12 0.31,0.8 0.61,1.62 0.6,2.47 -0.01,0.85 -0.68,1.51 -1.46,1.85 -0.21,0.09 -0.73,0.33 -0.9,0.49 -0.26,0.26 -0.11,0.83 0.62,1.24 0.33,0.18 0.23,0.71 0.02,1.02 -0.48,0.7 -0.76,0.7 -1.12,0.22 -0.07,-0.1 -0.54,-0.32 -0.65,-0.33 -0.19,-0.01 -0.28,0.29 -0.32,0.48 -0.11,0.41 0.09,1.02 0.5,1.12 0.41,0.1 0.69,0.83 0.56,0.87 -0.36,0.04 -0.93,-0.31 -1.06,-0.84 -0.09,-0.33 -0.39,-0.31 -0.31,-0.65 0.07,-0.33 0.06,-0.96 -0.02,-1.3 -0.25,-1.02 -0.65,0.12 -0.9,-0.17 -0.39,-0.37 -0.42,-1.35 -0.93,-1.51 -0.31,-0.1 -0.52,0.17 -0.79,0.36 -0.84,0.62 -1.75,1.31 -2.03,2.32 -0.06,0.22 -0.46,0.77 -0.62,0.93 -0.27,0.29 -0.33,-0.33 -0.58,-0.63 -0.25,-0.31 -0.39,-0.54 -0.44,-0.93 -0.05,-0.4 -0.1,-0.8 -0.15,-1.2 -0.03,-0.24 -0.1,-0.53 -0.33,-0.61 -0.14,-0.04 -0.29,0 -0.41,-0.07 -0.13,-0.09 -0.14,-0.27 -0.19,-0.42 -0.16,-0.43 -0.66,-0.6 -1.09,-0.74 -0.69,-0.24 -1.35,-0.56 -1.96,-0.97 -0.19,-0.12 -0.38,-0.26 -0.47,-0.47 -0.07,-0.15 -0.07,-0.31 -0.15,-0.46 -0.07,-0.14 -0.26,-0.25 -0.39,-0.16 -0.1,0.07 -0.12,0.22 -0.12,0.35 0.01,0.26 0.01,0.53 0.11,0.77 0.09,0.25 0.31,0.46 0.57,0.48 0.18,0.01 0.36,-0.06 0.52,0.01 0.09,0.04 0.15,0.12 0.21,0.19 0.2,0.26 0.78,0.64 0.54,0.9 -0.4,0.38 -0.79,0.72 -1.33,0.85 -1.73,0.42 -1.75,0.27 -1.91,-0.74 -0.1,-0.71 -0.36,-1.61 -0.37,-2.32 0,-0.56 -0.09,-1.41 -0.33,-1.51 -0.12,-0.04 -0.12,2.23 0.14,3.3 0.27,1.06 0.29,1.98 1.37,2.16 0.1,0.02 0.47,0.16 0.53,0.24 0.04,0.07 -0.14,0.29 -0.16,0.37 -0.1,0.39 -0.4,0.69 -0.74,0.9 -0.33,0.21 -0.56,0.13 -0.81,0.44 -0.24,0.32 1.15,1.87 0.58,1.7 -0.77,-0.85 -1.38,-1.79 -1.87,-2.86 -0.45,-0.96 -0.9,-2.49 -1,-3.54 -0.06,-0.66 -0.09,-1.75 -0.03,-2.41 0.14,-1.44 0.55,-2.96 1.22,-4.24 0.39,-0.33 -0.37,1.07 -0.11,2.01 0.17,0.61 0.65,1.54 1.54,1.3 0.31,-0.05 0.46,-0.67 0.3,-0.92 -0.17,-0.26 -0.65,-0.2 -0.65,-0.75 0,-0.19 0.23,-0.54 0.28,-0.73 0.25,-0.79 -0.84,0.69 -0.59,0.06 0.53,-0.37 0.9,-2.06 0.66,-2.02 -0.25,0.46 -0.6,0.93 -0.74,1.44 -0.45,0.17 0.7,-1.44 0.39,-1.49 -0.17,-0.03 -0.44,0.33 -0.61,0.3 0.29,-0.44 0.42,-0.63 0.6,-0.89l0.29 -0.35z"/>
   <polygon class="fil1" points="1.16,42.32 107.46,42.32 107.46,42.64 1.16,42.64 "/>
   <path class="fil1" d="M103.45 53.13l0.24 -0.61 -1.86 -4.62 0.95 0 1.01 2.63c0.11,0.29 0.19,0.55 0.26,0.76l0.07 0.23 0.14 -0.44c0.06,-0.18 0.19,-0.53 0.37,-1.04l0.77 -2.14 0.94 0 -1.98 5.25c-0.1,0.26 -0.21,0.49 -0.32,0.67 -0.12,0.19 -0.25,0.34 -0.38,0.45 -0.14,0.12 -0.29,0.2 -0.46,0.26 -0.17,0.05 -0.35,0.08 -0.55,0.08 -0.1,0 -0.21,0 -0.32,-0.02 -0.11,-0.01 -0.21,-0.03 -0.32,-0.05l-0.07 -0.02 0 -0.74 0.12 0.03c0.14,0.03 0.3,0.04 0.48,0.04 0.21,0 0.39,-0.06 0.54,-0.17 0.16,-0.12 0.28,-0.31 0.37,-0.55zm-2.86 -3.57l0 3.03 -0.88 0 0 -3.01c0,-0.17 -0.02,-0.32 -0.05,-0.45 -0.04,-0.12 -0.1,-0.22 -0.17,-0.3 -0.07,-0.08 -0.17,-0.14 -0.28,-0.18 -0.12,-0.04 -0.27,-0.06 -0.43,-0.06 -0.23,0 -0.42,0.03 -0.58,0.09 -0.16,0.05 -0.29,0.14 -0.39,0.25 -0.1,0.12 -0.17,0.28 -0.22,0.47 -0.05,0.2 -0.08,0.45 -0.08,0.73l0 2.46 -0.88 0 0 -4.69 0.74 0 0.09 0.5c0.05,-0.05 0.1,-0.11 0.16,-0.16 0.1,-0.09 0.22,-0.17 0.35,-0.23 0.27,-0.13 0.57,-0.2 0.89,-0.2 0.28,0 0.53,0.04 0.74,0.11 0.22,0.07 0.4,0.17 0.55,0.31 0.15,0.14 0.26,0.33 0.33,0.55 0.07,0.22 0.11,0.48 0.11,0.78zm-8.73 1.99c0.03,0.08 0.08,0.14 0.14,0.2 0.07,0.05 0.14,0.1 0.24,0.12 0.09,0.03 0.2,0.05 0.33,0.05 0.2,0 0.38,-0.03 0.53,-0.08 0.16,-0.06 0.29,-0.14 0.4,-0.24 0.11,-0.11 0.19,-0.24 0.25,-0.39 0.05,-0.15 0.08,-0.32 0.08,-0.52l0 -0.31 -0.58 0.03c-0.26,0.01 -0.49,0.03 -0.68,0.07 -0.19,0.04 -0.33,0.1 -0.45,0.16 -0.1,0.07 -0.18,0.15 -0.23,0.25 -0.05,0.1 -0.08,0.23 -0.08,0.37 0,0.11 0.02,0.21 0.05,0.29zm2.85 -2.13l0 3.17 -0.68 0 -0.12 -0.55c-0.08,0.09 -0.16,0.17 -0.25,0.24 -0.12,0.1 -0.23,0.18 -0.36,0.24 -0.11,0.05 -0.25,0.09 -0.39,0.11 -0.15,0.03 -0.31,0.04 -0.48,0.04 -0.23,0 -0.44,-0.03 -0.63,-0.09 -0.18,-0.06 -0.35,-0.15 -0.48,-0.28 -0.14,-0.12 -0.25,-0.27 -0.31,-0.45 -0.07,-0.18 -0.11,-0.38 -0.11,-0.6 0,-0.49 0.2,-0.86 0.59,-1.12 0.38,-0.25 0.94,-0.38 1.69,-0.41l0.67 -0.02 0 -0.18c0,-0.17 -0.02,-0.32 -0.05,-0.44 -0.04,-0.11 -0.09,-0.21 -0.15,-0.28 -0.07,-0.07 -0.15,-0.13 -0.26,-0.16 -0.11,-0.04 -0.24,-0.06 -0.4,-0.06 -0.18,0 -0.37,0.03 -0.58,0.08 -0.2,0.06 -0.42,0.14 -0.65,0.25l-0.1 0.05 -0.28 -0.7 0.08 -0.04c0.11,-0.06 0.23,-0.12 0.36,-0.17 0.12,-0.04 0.26,-0.09 0.39,-0.12 0.14,-0.04 0.27,-0.06 0.41,-0.08 0.14,-0.02 0.27,-0.03 0.41,-0.03 0.28,0 0.52,0.03 0.73,0.1 0.21,0.06 0.39,0.16 0.53,0.29 0.14,0.13 0.25,0.29 0.32,0.5 0.06,0.2 0.1,0.44 0.1,0.71zm-6.09 0.09c-0.05,-0.2 -0.13,-0.37 -0.23,-0.51 -0.1,-0.14 -0.22,-0.24 -0.36,-0.31 -0.14,-0.07 -0.3,-0.1 -0.49,-0.1 -0.22,0 -0.41,0.03 -0.56,0.09 -0.15,0.05 -0.27,0.14 -0.36,0.25 -0.1,0.12 -0.17,0.27 -0.22,0.46 -0.05,0.2 -0.08,0.43 -0.08,0.7l0 0.15c0,0.31 0.03,0.57 0.08,0.79 0.05,0.21 0.12,0.38 0.22,0.51 0.09,0.12 0.22,0.21 0.37,0.27 0.16,0.07 0.35,0.1 0.57,0.1 0.17,0 0.33,-0.04 0.47,-0.11 0.14,-0.07 0.26,-0.18 0.36,-0.32 0.21,-0.3 0.31,-0.72 0.31,-1.25 0,-0.27 -0.02,-0.51 -0.08,-0.72zm0.86 1.74c-0.09,0.3 -0.22,0.56 -0.39,0.77 -0.18,0.22 -0.39,0.38 -0.63,0.49 -0.24,0.11 -0.52,0.16 -0.82,0.16 -0.15,0 -0.3,-0.01 -0.44,-0.04 -0.14,-0.03 -0.28,-0.07 -0.41,-0.13 -0.12,-0.06 -0.24,-0.13 -0.35,-0.22 -0.05,-0.04 -0.1,-0.08 -0.14,-0.13l0.01 0.14c0.01,0.13 0.01,0.25 0.01,0.37l0 1.95 -0.87 0 0 -6.71 0.73 0 0.08 0.51c0.06,-0.07 0.12,-0.14 0.19,-0.19 0.1,-0.1 0.22,-0.17 0.35,-0.23 0.12,-0.06 0.25,-0.1 0.39,-0.13 0.14,-0.03 0.29,-0.05 0.45,-0.05 0.31,0 0.59,0.06 0.83,0.16 0.24,0.11 0.45,0.28 0.63,0.49 0.17,0.22 0.29,0.47 0.38,0.77 0.08,0.3 0.12,0.63 0.12,1.01 0,0.38 -0.04,0.71 -0.12,1.01zm-5.88 -1.69l0 3.03 -0.88 0 0 -3.02c0,-0.17 -0.02,-0.32 -0.05,-0.45 -0.04,-0.12 -0.09,-0.22 -0.16,-0.3 -0.06,-0.08 -0.15,-0.13 -0.25,-0.17 -0.11,-0.04 -0.24,-0.06 -0.39,-0.06 -0.2,0 -0.37,0.03 -0.52,0.08 -0.14,0.06 -0.25,0.14 -0.34,0.25 -0.1,0.11 -0.17,0.25 -0.21,0.43 -0.05,0.17 -0.07,0.39 -0.07,0.63l0 2.61 -0.88 0 0 -3.02c0,-0.17 -0.02,-0.32 -0.05,-0.45 -0.04,-0.12 -0.09,-0.22 -0.16,-0.3 -0.06,-0.08 -0.15,-0.13 -0.25,-0.17 -0.11,-0.04 -0.24,-0.06 -0.39,-0.06 -0.2,0 -0.38,0.03 -0.52,0.09 -0.14,0.05 -0.26,0.14 -0.34,0.25 -0.1,0.12 -0.16,0.28 -0.21,0.47 -0.05,0.21 -0.07,0.45 -0.07,0.73l0 2.46 -0.88 0 0 -4.69 0.73 0 0.09 0.5c0.05,-0.06 0.09,-0.11 0.14,-0.15 0.1,-0.1 0.21,-0.17 0.34,-0.24 0.12,-0.07 0.25,-0.11 0.39,-0.15 0.14,-0.03 0.29,-0.05 0.44,-0.05 0.37,0 0.67,0.07 0.92,0.21 0.21,0.11 0.37,0.28 0.48,0.49 0.06,-0.08 0.12,-0.16 0.19,-0.22 0.1,-0.1 0.22,-0.19 0.36,-0.26 0.13,-0.07 0.28,-0.13 0.43,-0.16 0.15,-0.04 0.32,-0.06 0.48,-0.06 0.27,0 0.5,0.04 0.7,0.11 0.21,0.07 0.38,0.17 0.52,0.32 0.14,0.14 0.24,0.32 0.31,0.55 0.06,0.21 0.1,0.47 0.1,0.77zm-10.89 -0.87c-0.15,0.07 -0.28,0.17 -0.39,0.3 -0.21,0.27 -0.32,0.69 -0.32,1.25 0,0.28 0.03,0.52 0.09,0.73 0.05,0.21 0.13,0.38 0.24,0.52 0.1,0.14 0.23,0.25 0.39,0.31 0.15,0.07 0.34,0.11 0.55,0.11 0.21,0 0.39,-0.04 0.55,-0.11 0.15,-0.06 0.28,-0.17 0.39,-0.3 0.1,-0.14 0.19,-0.32 0.24,-0.52 0.06,-0.21 0.08,-0.46 0.08,-0.74 0,-0.28 -0.02,-0.52 -0.08,-0.73 -0.05,-0.21 -0.14,-0.38 -0.24,-0.51 -0.11,-0.14 -0.24,-0.24 -0.39,-0.31 -0.16,-0.07 -0.35,-0.1 -0.56,-0.1 -0.21,0 -0.4,0.03 -0.55,0.1zm1.45 -0.71c0.27,0.11 0.5,0.27 0.69,0.5 0.2,0.21 0.34,0.47 0.44,0.77 0.1,0.29 0.14,0.62 0.14,0.99 0,0.38 -0.04,0.71 -0.14,1.01 -0.1,0.3 -0.24,0.56 -0.44,0.77 -0.38,0.44 -0.92,0.65 -1.6,0.65 -0.21,0 -0.41,-0.02 -0.6,-0.07 -0.18,-0.05 -0.36,-0.12 -0.52,-0.22 -0.17,-0.1 -0.31,-0.23 -0.44,-0.37 -0.12,-0.14 -0.23,-0.3 -0.32,-0.49 -0.09,-0.18 -0.16,-0.38 -0.2,-0.6 -0.04,-0.21 -0.07,-0.44 -0.07,-0.68 0,-0.38 0.05,-0.71 0.15,-1.01 0.09,-0.3 0.24,-0.55 0.43,-0.77 0.19,-0.22 0.42,-0.38 0.69,-0.49 0.27,-0.1 0.57,-0.16 0.91,-0.16 0.33,0 0.62,0.06 0.88,0.17zm-4.1 -1.19l-0.34 0.69 -0.08 -0.04c-0.22,-0.11 -0.45,-0.19 -0.67,-0.24 -0.22,-0.05 -0.44,-0.08 -0.66,-0.08 -0.31,0 -0.6,0.06 -0.84,0.16 -0.25,0.11 -0.47,0.26 -0.65,0.47 -0.18,0.21 -0.32,0.46 -0.41,0.75 -0.09,0.29 -0.14,0.62 -0.14,0.99 0,0.39 0.05,0.73 0.14,1.02 0.09,0.29 0.22,0.54 0.39,0.74 0.18,0.2 0.39,0.36 0.64,0.46 0.25,0.1 0.54,0.15 0.87,0.15 0.2,0 0.42,-0.02 0.65,-0.06 0.24,-0.03 0.49,-0.09 0.75,-0.16l0.13 -0.04 0 0.81 -0.07 0.02c-0.21,0.08 -0.45,0.14 -0.71,0.18 -0.27,0.04 -0.55,0.06 -0.86,0.06 -0.45,0 -0.86,-0.07 -1.21,-0.2 -0.36,-0.14 -0.66,-0.35 -0.91,-0.63 -0.25,-0.28 -0.44,-0.62 -0.56,-1.01 -0.12,-0.39 -0.19,-0.84 -0.19,-1.35 0,-0.31 0.03,-0.61 0.09,-0.89 0.06,-0.28 0.15,-0.54 0.27,-0.78 0.12,-0.24 0.27,-0.45 0.44,-0.64 0.17,-0.18 0.37,-0.34 0.6,-0.47 0.23,-0.13 0.47,-0.23 0.74,-0.3 0.27,-0.06 0.55,-0.09 0.85,-0.09 0.32,0 0.62,0.03 0.91,0.09 0.28,0.05 0.54,0.14 0.79,0.26l0.08 0.04 -0.04 0.09zm-9.85 4.71c0.03,0.09 0.07,0.17 0.13,0.23 0.05,0.06 0.12,0.11 0.19,0.14 0.08,0.03 0.16,0.05 0.26,0.05 0.06,0 0.12,-0.01 0.17,-0.01 0.06,0 0.12,-0.01 0.17,-0.02l0.14 -0.02 0.11 -0.03 0.13 -0.04 0 0.71 -0.06 0.03c-0.04,0.02 -0.09,0.04 -0.15,0.06 -0.06,0.01 -0.13,0.03 -0.2,0.04 -0.07,0.01 -0.14,0.02 -0.21,0.02 -0.07,0.01 -0.14,0.01 -0.19,0.01 -0.47,0 -0.82,-0.12 -1.05,-0.37 -0.24,-0.25 -0.36,-0.61 -0.36,-1.1l0 -2.58 -0.64 0 0 -0.49 0.66 -0.29 0.3 -0.99 0.56 0 0 1.05 1.3 0 0 0.72 -1.3 0 0 2.55c0,0.13 0.01,0.24 0.04,0.33zm-3.26 -1.36c0.19,0.11 0.33,0.21 0.43,0.32 0.1,0.1 0.18,0.23 0.23,0.36 0.05,0.14 0.08,0.29 0.08,0.45 0,0.22 -0.04,0.42 -0.13,0.59 -0.08,0.18 -0.21,0.33 -0.38,0.45 -0.16,0.12 -0.36,0.22 -0.59,0.28 -0.23,0.05 -0.49,0.08 -0.78,0.08 -0.3,0 -0.58,-0.02 -0.82,-0.07 -0.24,-0.05 -0.45,-0.12 -0.62,-0.22l-0.05 -0.03 0 -0.85 0.14 0.07c0.1,0.06 0.21,0.11 0.32,0.15 0.11,0.04 0.23,0.07 0.35,0.11 0.12,0.03 0.24,0.05 0.36,0.06 0.11,0.02 0.22,0.03 0.34,0.03 0.17,0 0.32,-0.02 0.45,-0.04 0.13,-0.03 0.23,-0.07 0.32,-0.12 0.08,-0.05 0.14,-0.11 0.18,-0.18 0.04,-0.07 0.06,-0.16 0.06,-0.26 0,-0.07 -0.02,-0.14 -0.05,-0.2 -0.03,-0.06 -0.08,-0.12 -0.14,-0.17 -0.07,-0.06 -0.18,-0.12 -0.32,-0.19 -0.15,-0.08 -0.33,-0.16 -0.55,-0.24 -0.21,-0.08 -0.39,-0.15 -0.54,-0.22 -0.15,-0.07 -0.28,-0.13 -0.37,-0.2 -0.09,-0.06 -0.17,-0.12 -0.24,-0.19 -0.08,-0.08 -0.14,-0.15 -0.18,-0.23 -0.05,-0.09 -0.09,-0.18 -0.11,-0.27 -0.02,-0.1 -0.04,-0.2 -0.04,-0.31 0,-0.2 0.04,-0.38 0.13,-0.54 0.08,-0.16 0.2,-0.29 0.36,-0.41 0.16,-0.11 0.35,-0.2 0.57,-0.25 0.21,-0.06 0.45,-0.09 0.72,-0.09 0.25,0 0.49,0.03 0.74,0.08 0.24,0.05 0.48,0.13 0.72,0.23l0.09 0.04 -0.32 0.73 -0.09 -0.04c-0.22,-0.09 -0.43,-0.16 -0.63,-0.2 -0.2,-0.05 -0.39,-0.07 -0.56,-0.07 -0.16,0 -0.29,0.01 -0.41,0.03 -0.11,0.03 -0.2,0.06 -0.27,0.11 -0.07,0.04 -0.12,0.09 -0.15,0.14 -0.04,0.06 -0.05,0.12 -0.05,0.19 0,0.05 0,0.1 0.02,0.14 0.01,0.04 0.03,0.08 0.05,0.11 0.03,0.04 0.06,0.07 0.1,0.11 0.05,0.04 0.1,0.07 0.17,0.11 0.06,0.04 0.16,0.08 0.29,0.14 0.13,0.05 0.29,0.11 0.48,0.19 0.27,0.09 0.5,0.19 0.69,0.29zm-4.88 -2.85c-0.06,-0.02 -0.11,-0.06 -0.16,-0.11 -0.05,-0.04 -0.08,-0.1 -0.11,-0.18 -0.02,-0.06 -0.03,-0.14 -0.03,-0.23 0,-0.08 0.01,-0.16 0.03,-0.23 0.03,-0.07 0.06,-0.13 0.11,-0.18 0.05,-0.04 0.1,-0.08 0.16,-0.1 0.06,-0.02 0.13,-0.04 0.2,-0.04 0.06,0 0.13,0.02 0.19,0.04 0.05,0.02 0.11,0.06 0.16,0.1 0.1,0.1 0.15,0.23 0.15,0.41 0,0.09 -0.02,0.17 -0.04,0.24 -0.02,0.07 -0.06,0.13 -0.11,0.18 -0.05,0.04 -0.11,0.08 -0.16,0.1 -0.06,0.02 -0.13,0.04 -0.19,0.04 -0.07,0 -0.14,-0.02 -0.2,-0.04zm-0.15 0.61l0.78 0 0 4.69 -0.88 0 0 -4.69 0.1 0zm-2.39 2.24c0.19,0.11 0.33,0.21 0.43,0.32 0.1,0.1 0.18,0.23 0.23,0.36 0.05,0.14 0.08,0.29 0.08,0.45 0,0.22 -0.04,0.42 -0.13,0.59 -0.08,0.18 -0.21,0.33 -0.38,0.45 -0.16,0.12 -0.36,0.22 -0.59,0.28 -0.23,0.05 -0.49,0.08 -0.78,0.08 -0.3,0 -0.58,-0.02 -0.81,-0.07 -0.25,-0.05 -0.46,-0.12 -0.63,-0.22l-0.05 -0.03 0 -0.85 0.14 0.07c0.1,0.06 0.21,0.11 0.32,0.15 0.12,0.04 0.23,0.07 0.35,0.11 0.12,0.03 0.24,0.05 0.36,0.06 0.11,0.02 0.22,0.03 0.34,0.03 0.17,0 0.32,-0.02 0.45,-0.04 0.13,-0.03 0.23,-0.07 0.32,-0.12 0.08,-0.05 0.14,-0.11 0.18,-0.18 0.04,-0.07 0.06,-0.16 0.06,-0.26 0,-0.07 -0.02,-0.14 -0.05,-0.2 -0.03,-0.06 -0.08,-0.12 -0.14,-0.17 -0.07,-0.06 -0.18,-0.12 -0.32,-0.19 -0.15,-0.08 -0.33,-0.16 -0.55,-0.24 -0.21,-0.08 -0.39,-0.15 -0.54,-0.22 -0.15,-0.07 -0.28,-0.14 -0.37,-0.19 -0.09,-0.07 -0.17,-0.13 -0.24,-0.2 -0.07,-0.08 -0.14,-0.15 -0.18,-0.23 -0.05,-0.09 -0.09,-0.18 -0.11,-0.27 -0.02,-0.1 -0.04,-0.2 -0.04,-0.31 0,-0.2 0.05,-0.38 0.13,-0.54 0.08,-0.16 0.2,-0.29 0.36,-0.41 0.16,-0.11 0.35,-0.2 0.57,-0.25 0.21,-0.06 0.45,-0.09 0.72,-0.09 0.25,0 0.49,0.03 0.74,0.08 0.24,0.05 0.48,0.13 0.72,0.23l0.09 0.04 -0.32 0.73 -0.09 -0.04c-0.22,-0.09 -0.43,-0.16 -0.63,-0.2 -0.2,-0.05 -0.38,-0.07 -0.56,-0.07 -0.16,0 -0.29,0.01 -0.41,0.03 -0.11,0.03 -0.2,0.06 -0.27,0.11 -0.07,0.04 -0.12,0.09 -0.15,0.14 -0.04,0.06 -0.05,0.12 -0.05,0.19 0,0.05 0,0.1 0.02,0.14 0.01,0.04 0.03,0.08 0.05,0.11 0.03,0.04 0.06,0.07 0.1,0.11 0.05,0.04 0.1,0.07 0.17,0.11 0.06,0.03 0.16,0.08 0.29,0.14 0.13,0.05 0.29,0.11 0.48,0.19 0.27,0.09 0.5,0.19 0.69,0.29zm-4.66 0c0.19,0.11 0.34,0.21 0.44,0.32 0.1,0.1 0.18,0.23 0.23,0.36 0.05,0.14 0.08,0.29 0.08,0.45 0,0.22 -0.04,0.42 -0.13,0.6 -0.08,0.17 -0.21,0.32 -0.38,0.44 -0.17,0.12 -0.37,0.22 -0.6,0.28 -0.22,0.05 -0.48,0.08 -0.77,0.08 -0.31,0 -0.58,-0.02 -0.82,-0.07 -0.24,-0.05 -0.45,-0.12 -0.63,-0.22l-0.05 -0.03 0 -0.85 0.15 0.07c0.1,0.06 0.21,0.11 0.32,0.15 0.11,0.04 0.23,0.07 0.35,0.11 0.12,0.03 0.24,0.05 0.36,0.06 0.11,0.02 0.22,0.03 0.33,0.03 0.18,0 0.33,-0.02 0.46,-0.04 0.12,-0.03 0.23,-0.07 0.32,-0.12 0.08,-0.05 0.14,-0.11 0.18,-0.18 0.04,-0.07 0.06,-0.16 0.06,-0.26 0,-0.07 -0.02,-0.14 -0.05,-0.2 -0.03,-0.06 -0.08,-0.12 -0.15,-0.17 -0.07,-0.06 -0.17,-0.12 -0.31,-0.19 -0.15,-0.08 -0.33,-0.16 -0.55,-0.24 -0.21,-0.08 -0.39,-0.15 -0.54,-0.22 -0.15,-0.07 -0.28,-0.13 -0.37,-0.2 -0.09,-0.06 -0.18,-0.12 -0.25,-0.19 -0.07,-0.08 -0.13,-0.15 -0.17,-0.23 -0.05,-0.08 -0.09,-0.17 -0.11,-0.27 -0.03,-0.1 -0.04,-0.2 -0.04,-0.31 0,-0.2 0.04,-0.38 0.12,-0.54 0.09,-0.16 0.21,-0.29 0.37,-0.41 0.16,-0.11 0.35,-0.2 0.56,-0.25 0.22,-0.06 0.46,-0.09 0.73,-0.09 0.24,0 0.49,0.03 0.73,0.08 0.25,0.05 0.49,0.13 0.72,0.23l0.09 0.04 -0.31 0.73 -0.09 -0.04c-0.22,-0.09 -0.43,-0.16 -0.63,-0.2 -0.2,-0.05 -0.39,-0.07 -0.56,-0.07 -0.16,0 -0.29,0.01 -0.41,0.03 -0.11,0.03 -0.2,0.06 -0.28,0.11 -0.06,0.04 -0.11,0.09 -0.15,0.14 -0.03,0.06 -0.04,0.12 -0.04,0.19 0,0.05 0,0.1 0.01,0.14 0.02,0.04 0.03,0.08 0.06,0.11 0.02,0.04 0.06,0.07 0.1,0.11 0.05,0.04 0.1,0.07 0.17,0.11 0.06,0.04 0.16,0.08 0.29,0.14 0.13,0.05 0.29,0.11 0.48,0.19 0.27,0.09 0.5,0.19 0.68,0.29zm-6.45 -2.01l-0.66 1.73 1.67 0 -0.65 -1.73c-0.05,-0.12 -0.1,-0.25 -0.14,-0.4l-0.05 -0.14 -0.02 0.08c-0.04,0.15 -0.09,0.3 -0.15,0.46zm0.56 -1.7l2.42 6.16 -0.93 0 -0.75 -1.91 -2.28 0 -0.74 1.91 -0.91 0c0.81,-2.07 1.63,-4.15 2.45,-6.22l0.72 0 0.02 0.06zm-7.76 0.86c-0.06,-0.02 -0.12,-0.06 -0.17,-0.11 -0.05,-0.04 -0.08,-0.1 -0.11,-0.18 -0.02,-0.06 -0.03,-0.14 -0.03,-0.23 0,-0.08 0.01,-0.16 0.03,-0.23 0.03,-0.07 0.06,-0.13 0.11,-0.18 0.05,-0.04 0.11,-0.08 0.17,-0.1 0.05,-0.02 0.12,-0.04 0.19,-0.04 0.06,0 0.13,0.02 0.19,0.04 0.06,0.02 0.11,0.06 0.16,0.1 0.05,0.05 0.09,0.11 0.11,0.18 0.03,0.07 0.04,0.15 0.04,0.23 0,0.09 -0.01,0.17 -0.04,0.24 -0.02,0.07 -0.06,0.13 -0.11,0.18 -0.05,0.04 -0.1,0.08 -0.16,0.1 -0.06,0.02 -0.12,0.04 -0.19,0.04 -0.07,0 -0.14,-0.02 -0.19,-0.04zm-0.16 0.61l0.78 0 0 4.69 -0.87 0 0 -4.69 0.09 0zm-5.16 3.1c0.05,0.2 0.12,0.37 0.22,0.51 0.1,0.13 0.21,0.23 0.35,0.3 0.14,0.07 0.31,0.1 0.5,0.1 0.22,0 0.41,-0.03 0.57,-0.09 0.15,-0.06 0.27,-0.14 0.37,-0.26 0.09,-0.11 0.17,-0.26 0.21,-0.45 0.05,-0.2 0.08,-0.43 0.08,-0.71l0 -0.14c0,-0.32 -0.03,-0.58 -0.08,-0.8 -0.05,-0.22 -0.12,-0.39 -0.22,-0.51 -0.09,-0.12 -0.22,-0.21 -0.37,-0.28 -0.16,-0.06 -0.35,-0.09 -0.57,-0.09 -0.18,0 -0.35,0.03 -0.48,0.1 -0.14,0.07 -0.26,0.18 -0.36,0.32 -0.1,0.15 -0.17,0.33 -0.22,0.53 -0.05,0.21 -0.08,0.46 -0.08,0.73 0,0.28 0.03,0.53 0.08,0.74zm3.08 1.59l-0.64 0 -0.08 -0.5c-0.14,0.17 -0.31,0.31 -0.51,0.4 -0.25,0.12 -0.54,0.18 -0.87,0.18 -0.3,0 -0.58,-0.05 -0.82,-0.16 -0.24,-0.1 -0.45,-0.26 -0.63,-0.48 -0.17,-0.21 -0.3,-0.46 -0.38,-0.76 -0.09,-0.3 -0.13,-0.63 -0.13,-1.01 0,-0.38 0.04,-0.72 0.13,-1.02 0.08,-0.3 0.21,-0.56 0.39,-0.77 0.17,-0.22 0.38,-0.38 0.62,-0.49 0.24,-0.11 0.52,-0.17 0.82,-0.17 0.32,0 0.61,0.06 0.85,0.18 0.19,0.09 0.35,0.21 0.49,0.36 -0.06,-0.77 -0.02,-1.58 -0.02,-2.34l0.87 0 0 6.58 -0.09 0zm-6.41 -3.32c-0.04,-0.15 -0.11,-0.28 -0.2,-0.38 -0.08,-0.11 -0.19,-0.18 -0.31,-0.23 -0.12,-0.06 -0.27,-0.08 -0.43,-0.08 -0.17,0 -0.32,0.03 -0.45,0.08 -0.13,0.05 -0.25,0.13 -0.35,0.24 -0.1,0.11 -0.18,0.24 -0.23,0.39 -0.05,0.13 -0.09,0.27 -0.11,0.43l2.15 0c-0.01,-0.17 -0.03,-0.32 -0.07,-0.45zm0.38 3.24c-0.11,0.04 -0.23,0.07 -0.34,0.09 -0.11,0.03 -0.24,0.04 -0.37,0.06 -0.13,0.01 -0.27,0.01 -0.43,0.01 -0.34,0 -0.65,-0.05 -0.93,-0.16 -0.27,-0.1 -0.51,-0.26 -0.71,-0.47 -0.21,-0.22 -0.36,-0.47 -0.46,-0.77 -0.1,-0.29 -0.15,-0.62 -0.15,-0.99 0,-0.37 0.05,-0.71 0.14,-1 0.09,-0.3 0.23,-0.57 0.42,-0.79 0.19,-0.23 0.41,-0.39 0.66,-0.51 0.26,-0.11 0.54,-0.17 0.86,-0.17 0.29,0 0.56,0.05 0.79,0.15 0.24,0.1 0.44,0.25 0.62,0.44 0.17,0.2 0.3,0.43 0.39,0.68 0.08,0.26 0.12,0.54 0.12,0.86l0 0.52 -3.09 0c0.01,0.22 0.04,0.41 0.1,0.57 0.06,0.19 0.15,0.35 0.27,0.47 0.11,0.13 0.25,0.23 0.42,0.29 0.16,0.06 0.36,0.09 0.58,0.09 0.23,0 0.47,-0.02 0.7,-0.07 0.23,-0.05 0.47,-0.12 0.7,-0.22l0.13 -0.06 0 0.82 -0.06 0.02c-0.12,0.06 -0.24,0.1 -0.36,0.14zm-5.99 -4.81l-1.9 4.89 -0.69 0 -1.87 -4.89 0.01 0.16c0.01,0.26 0.01,0.53 0.01,0.82l0 3.91 -0.84 0 0 -6.2 1.22 0 1.85 4.83 1.87 -4.83 1.2 0 0 6.2 -0.89 0 0 -3.96c0,-0.22 0.01,-0.45 0.02,-0.7l0.01 -0.23zm-12.31 0.43l-0.65 1.73 1.66 0 -0.65 -1.73c-0.04,-0.12 -0.09,-0.25 -0.14,-0.4l-0.04 -0.14 -0.02 0.08c-0.05,0.15 -0.1,0.3 -0.16,0.46zm0.57 -1.7l2.41 6.16 -0.93 0 -0.75 -1.91 -2.27 0 -0.74 1.91 -0.92 0c0.82,-2.07 1.64,-4.15 2.45,-6.22l0.72 0 0.03 0.06z"/>
  </g>
 </g>
</svg>
