<?xml version="1.0" encoding="UTF-8"?>
<!DOCTYPE svg PUBLIC "-//W3C//DTD SVG 1.1//EN" "http://www.w3.org/Graphics/SVG/1.1/DTD/svg11.dtd">
<!-- Creator: CorelDRAW -->
<svg xmlns="http://www.w3.org/2000/svg" xml:space="preserve" width="2480px" height="2480px" version="1.1" style="shape-rendering:geometricPrecision; text-rendering:geometricPrecision; image-rendering:optimizeQuality; fill-rule:evenodd; clip-rule:evenodd"
viewBox="0 0 1421.31 1421.31"
 xmlns:xlink="http://www.w3.org/1999/xlink"
 xmlns:xodm="http://www.corel.com/coreldraw/odm/2003">
 <defs>
  <style type="text/css">
   <![CDATA[
    .fil1 {fill:none}
    .fil0 {fill:#E7E6E6;fill-rule:nonzero}
   ]]>
  </style>
 </defs>
 <g id="Layer_x0020_1">
  <metadata id="CorelCorpID_0Corel-Layer"/>
  <g id="_1762945370384">
   <path class="fil0" d="M1176.68 324.25c-3.52,-5.53 -4.87,-7.51 -4.87,-7.51 -2.4,0.08 -4.08,2.32 -3.63,9.72 0,0 1.15,19.18 2.35,36.95 1.33,19.28 1.09,39.15 -8.85,57.02 -11.02,19.79 -22.66,28.9 -42.96,40.75 -20.77,12.01 -39.42,19.81 -39.42,19.81 0,0 16.2,14.41 39.02,43.23 13.83,17.07 4.13,35.88 -8.65,51.83 -12.89,15.98 -14.94,29.35 -16.06,39.95 -0.22,2 -0.56,4.08 -0.99,6.1 0,0 0.03,0 0.03,0.03 -1.25,7.22 -1.04,11 -12.01,20.94 -6.05,5.48 -2.38,17.31 0.93,22.21 0,0 21.12,-8.87 23.52,-33.99 0.05,-0.8 0.61,-6.55 0.95,-8.87 4.11,-25.59 10.07,-27.86 32.15,-49.91 22.32,-22.03 8.23,-50.98 4.21,-58.62 -2.93,-5.65 7.88,-15.07 24.61,-34.28 16.97,-19.28 29.83,-47.54 31.11,-78.33 1.28,-30.71 -11.24,-60.91 -21.44,-77.03l0 0zm-120.76 244.05c1.78,0.51 7.35,-12.41 7.16,-16.43 -0.18,-4.05 -2.34,-6.1 -5.3,-8.68 -3.03,-2.64 -16.83,-11.78 -16.83,-11.78 0,0 -5.54,12.98 3.09,19.1 2.74,1.94 9.75,6.79 10.36,10.2 0.32,1.81 -1.38,6.79 1.52,7.59l0 0zm-751.16 488.29l788.32 0 0 -36.01 -788.32 0 0 36.01zm-81.66 78.06l870 0 0 -47.99 -870 0 0 47.99zm854.85 -352.95c-4.58,7.77 -11.72,9.56 -17.18,9.56 -4.45,0 -7.78,-1.15 -7.86,-1.17l-1.7 -0.62 0.74 -1.65c0.03,-0.05 2.69,-5.99 3.07,-15.98 0.71,-19.28 -9.73,-32.41 -19.77,-45.09 -1.36,-1.68 -2.66,-3.36 -3.97,-5.04 -2.07,-2.69 -5.24,-5.91 -8.94,-9.64 -7.78,-7.83 -17.42,-17.6 -21.98,-28.12 -7.8,-18.01 -5.8,-36.41 -5.72,-37.16l0.21 -1.7 1.68 0.24c0.29,0.02 6.87,1.17 8.57,11.45 3.63,22.48 15.93,33.43 24.91,41.39 1.22,1.09 2.37,2.1 3.43,3.12 10.5,9.77 24.24,24.82 28.66,30.52 17.15,21.84 22.48,38.59 15.85,49.89zm-24.88 68.02c-4.13,9.11 -11.69,15.18 -22.58,18.01 -2.19,0.55 -4.32,0.85 -6.42,0.85 -1.63,0 -3.2,-0.16 -4.74,-0.51 -7.41,-1.62 -15.64,-7.99 -16.92,-11.88l-0.64 -1.97 2.05 -0.18c3.47,-0.35 6.71,-1.12 9.67,-2.32 13.13,-5.22 18.7,-17.13 14.89,-31.86 -2.82,-10.84 -8.07,-15.02 -13.16,-19.04 -4.82,-3.83 -9.34,-7.46 -10.3,-16.01 -0.35,-3.43 -0.59,-6.65 -0.83,-9.74 -0.9,-12.2 -1.62,-21.84 -8.76,-31.38 0,0 -1.17,-1.52 -1.23,-1.57 -3.46,-4.24 -7.8,-8.76 -12.41,-13.5 -7.75,-8.05 -15.79,-16.36 -20.4,-24.51 -3.17,-6.28 -6.55,-13.85 -7.67,-22.5 -1.01,-7.78 -0.06,-17 0.98,-26.72 0.72,-6.92 1.47,-14.06 1.44,-20.72 0,-17.74 -4.76,-27.75 -4.82,-27.83l-1.17 -2.37 2.66 -0.03c0.54,0 10.68,0.24 15.5,16.33 2.27,7.62 2.75,19.17 3.15,30.36 0.34,8.34 0.66,16.17 1.7,21.81 2.29,14.65 8.79,25.84 21.66,37.45l0.05 0.03c0.32,0.29 1.89,1.52 2.77,2.15l1.28 0.96c7.51,5.44 25.09,18.17 27.54,41.23 1.22,11.21 1.09,23.42 1.06,26.77 3.17,2.29 15.56,11.69 21.98,24.35 6.04,11.95 10.17,29.85 3.67,44.34zm-61.26 -3.78c-0.56,0.77 -1.11,1.52 -1.78,2.26 -3.36,3.7 -9.99,6.29 -16.44,6.29 -3.38,0 -6.71,-0.7 -9.48,-2.29 -0.24,-0.16 -0.72,-0.38 -1.33,-0.67 -2.24,-1.04 -3.89,-1.84 -4.66,-2.58l-1.22 -1.2 1.22 -1.17c0.56,-0.56 1.07,-1.07 1.57,-1.63 1.6,-1.62 3.09,-3.38 4.48,-5.27 7.22,-9.88 7.19,-18.03 7.19,-18.11 -0.05,-15.4 -4.93,-22.56 -12.97,-34.44 -3.39,-4.9 -7.17,-10.49 -11.35,-17.74 -14.97,-25.83 -2.71,-47.41 -2.18,-48.34l1.06 -1.84 1.5 1.52c0.53,0.32 6.87,4.98 7.43,15.63 -0.72,8.61 0.32,20.03 14.78,34.18 29.4,28.49 37.26,55.29 22.18,75.4l0 0zm-30.92 28.42c0,-0.03 0,-0.06 0.03,-0.11 0,0 0.02,0.05 0.08,0.11l-0.11 0zm-30.04 -372.08c-16.54,-14.97 -37.08,-33.59 -76.34,-14.62l-10.3 5.06 0.1 -2.78c0.03,-0.34 0.48,-8.36 10.92,-15.5 30.42,-21.89 68.58,-9.26 88.93,13.61 5.44,6.05 8.63,14.49 8.5,18.83l-0.11 0.48 -0.37 1.15 -0.75 0.02c-1.92,1.04 -3.97,1.47 -5.96,1.47 -4,0 -7.83,-1.65 -9.88,-3.46 -1.55,-1.36 -3.12,-2.8 -4.75,-4.26l0.01 0zm156.45 213.07c-20.06,-28.95 -25.25,-49.17 -25.25,-49.17 0.05,-0.05 0.05,-0.05 0.02,-0.1 0,0 -7.24,-8.07 -9.88,-12.33 -5.56,-8.87 -7.45,-19.79 -6.82,-30.71 0.27,-4.32 0.67,-7.25 0.86,-9.72 0.29,-4.69 -2,-10.58 -5.57,-13.61 -14.78,-12.52 -23.49,-22.56 -27.22,-28.64 -20.27,-34.46 -5.67,-54.94 -1.84,-61.17 7.78,-12.74 30.44,-22.83 33.85,-24.43 3.76,-1.76 8.63,-4.66 6.26,-9.32 -2.29,-4.48 -22.18,-29.01 -25.3,-84.08 -2.21,-39.98 23.28,-71.2 42.72,-88.99 11.08,-8.79 10.92,-13.82 10.39,-16.08 -2.21,-1.36 -10.12,1.43 -21.12,6.81 -17.95,8.87 -48.34,30.66 -60.22,57.21 -14.23,31.94 -11.54,70.11 -13.35,97.99 -0.21,2.56 -0.93,6.66 -1.78,9.32 -7.09,20.22 -30.07,7.94 -31.83,6.98 -6.05,-3.54 -13,-7.51 -17.53,-9.8 -30.52,-15.31 -69.83,-11.61 -94.01,11.27 -36.89,34.94 -18.59,83.09 -4.9,101.05 -1.18,0.58 -92.58,35.42 -183.06,11.98 -72.37,-17.9 -141.69,-7.51 -175.31,38.22 -10.81,14.7 -26.95,47.81 -14.75,113.44 2.87,15.42 5.09,20.82 12.62,48.6 6.88,25.36 16.52,68.24 -7.37,80.94 -53.25,28.34 -38.2,73.17 -38.2,73.17 0,0 62.62,-13.4 70.02,-92.34 3.31,-35.51 -18.4,-85.31 -21.12,-126.09 -3.33,-49.83 20.96,-75.53 35,-86.35 17.18,-13.23 66.27,-30.65 112.02,-9.32 10.2,4.77 20.14,9.99 29.51,14.81 17,8.42 32.02,14.2 42.7,14.6 36.11,1.35 77.96,-10.74 117.83,-20.7 28.98,-7.24 75.48,-25.17 75.48,-25.17 0,0 33.4,37.21 18,86.19 -3.22,10.2 -5.64,18.14 -10.2,31.16 -2.45,7.01 -4.52,21.68 -2.61,31.46 1.47,7.37 2.69,16.19 7.12,32.52 0.26,0.98 2.66,10.97 3.38,20.64 0.45,5.83 -0.53,16.62 -4.29,23.06 -2.05,3.49 -4.1,6.02 -8.55,7.04 -4.9,1.11 -9.83,-2.11 -24.74,-9.75 -12.12,-6.18 -48.08,-24.91 -87.28,-15.98 0,0 -15.02,2.98 -33.83,9.93 -11.4,4.21 -31.45,5.11 -43.81,2.4 -13.8,-2.98 -37.82,-9.24 -49.99,-12.65 4.23,-25.31 6.87,-42.96 5.09,-47.15 -5.97,-13.84 -38.22,-37.18 -53.03,-46.52 -14.12,-8.87 -18.03,3.46 -15.32,19.73 6.45,38.89 4.29,96.34 -59.31,111.81 -4.02,0.99 -6.42,4.07 -8.23,8.12 -10.2,22.38 -32.95,81.69 -33.08,82.44 -2.02,4.5 -0.16,7.24 1.78,7.59 8.95,1.62 11.88,9 11.96,14.7l-120.65 0 0 30.02 710.55 0 0 -30.02 -47.31 0c-0.85,-1.36 -10.33,-16.73 -10.3,-16.86 -8.61,-3.27 -13.19,-5.3 -16.92,-10.52 -1.68,-2.4 -2.85,-5.09 -3.65,-7.88l-3.99 -11.62c-10.07,-1.17 -28.39,-4.55 -42.16,-14.75 5.86,19.01 10.41,38.22 12.04,43.76 0.53,1.89 1.41,3.81 3.38,3.99 8.41,0.85 12.68,7.43 12.86,13.88l-305.62 0c-0.86,-1.36 -10.34,-16.73 -10.31,-16.86 -11.05,-4.21 -18.8,-8.39 -22.59,-16.81 0,0 -9.64,-22.18 -8.01,-35.66 2.1,-17.15 21.3,-29.83 21.3,-29.83 0,0 -14.49,-3.94 -21.86,-3.7 -11.56,0.32 -14.92,13.02 -33.54,23.44 -4.84,2.71 -8.87,2.55 -6.76,9.75 2.82,9.53 14.01,42.26 16.78,51.8 0.53,1.89 1.41,3.81 3.38,3.99 8.42,0.86 11.99,7.49 12.25,13.88l-88.26 0c-0.62,-1.04 -9.75,-16.73 -9.88,-16.75 -10.26,-3.97 -14.76,-10.47 -12.49,-21.1 0.66,-3.03 4.44,-12.12 5.64,-14.94 8.95,-21.52 25.76,-23.7 33.56,-26.13 20.03,-6.26 33.72,-11.18 45.6,-19.76 3.38,-2.45 7.03,-6.61 11.29,-11.16 8.5,-9.16 19.44,-11.88 27.7,-10.23 36.22,6.53 68.5,17.18 68.5,17.18 0,0 37.26,-16.62 63.5,-21.23 21.92,-3.83 41.09,0.54 56.57,6.79 9.64,3.89 20.51,8.34 30.52,14.79 20.38,13.15 36.52,17.33 36.68,17.41 0,0 -15.35,17.05 -18.73,19.31 -3.81,2.56 -7.11,2.35 -11.5,-0.96 -3.97,-2.95 -10.39,-8.3 -10.39,-8.3l-27.03 46.76c0,0 14.86,0.03 28.31,-0.85 0,0 12.57,8.05 26.79,-3.25 12.28,-9.75 25.36,-19.41 43.79,-25.11 11.05,-3.44 16.33,-8.79 19.18,-13.67 1.89,-3.22 2.29,-8.57 2.02,-12.22 3.52,4.42 14.28,11.58 24.16,15.42 12.17,4.98 23.51,6.9 34.83,5.83 8.9,-0.77 17.93,-3.33 27.62,-8.07 42.99,-20.88 34.34,-63.23 34.34,-63.23 43.86,-19.55 33.74,-67.03 2.9,-111.54l0 0z"/>
   <rect class="fil1" width="1421.31" height="1421.31"/>
  </g>
 </g>
</svg>
